<svg xmlns="http://www.w3.org/2000/svg" xmlns:xlink="http://www.w3.org/1999/xlink" width="200" zoomAndPan="magnify" viewBox="0 0 150 37.5" height="50" preserveAspectRatio="xMidYMid meet" version="1.0"><defs><g/><clipPath id="48a5724fd2"><path d="M 0.988281 0 L 149.011719 0 L 149.011719 37.007812 L 0.988281 37.007812 Z M 0.988281 0 " clip-rule="nonzero"/></clipPath><clipPath id="05339aeca1"><path d="M 4.6875 7.257812 L 145.371094 7.257812 L 145.371094 29.980469 L 4.6875 29.980469 Z M 4.6875 7.257812 " clip-rule="nonzero"/></clipPath><clipPath id="29c6866365"><path d="M 6.167969 7.257812 L 143.832031 7.257812 C 144.226562 7.257812 144.601562 7.414062 144.878906 7.691406 C 145.15625 7.96875 145.3125 8.34375 145.3125 8.738281 L 145.3125 28.34375 C 145.3125 28.734375 145.15625 29.113281 144.878906 29.390625 C 144.601562 29.667969 144.226562 29.824219 143.832031 29.824219 L 6.167969 29.824219 C 5.773438 29.824219 5.398438 29.667969 5.121094 29.390625 C 4.84375 29.113281 4.6875 28.734375 4.6875 28.34375 L 4.6875 8.738281 C 4.6875 8.34375 4.84375 7.96875 5.121094 7.691406 C 5.398438 7.414062 5.773438 7.257812 6.167969 7.257812 " clip-rule="nonzero"/></clipPath><clipPath id="79fabd9880"><path d="M 10.414062 10.441406 L 30.375 10.441406 L 30.375 26.726562 L 10.414062 26.726562 Z M 10.414062 10.441406 " clip-rule="nonzero"/></clipPath></defs><g clip-path="url(#48a5724fd2)"><path fill="#ffffff" d="M 0.988281 0 L 149.011719 0 L 149.011719 81.414062 L 0.988281 81.414062 Z M 0.988281 0 " fill-opacity="1" fill-rule="nonzero"/><path fill="#ffffff" d="M 0.988281 0 L 149.011719 0 L 149.011719 37.007812 L 0.988281 37.007812 Z M 0.988281 0 " fill-opacity="1" fill-rule="nonzero"/><path fill="#ffffff" d="M 0.988281 0 L 149.011719 0 L 149.011719 37.007812 L 0.988281 37.007812 Z M 0.988281 0 " fill-opacity="1" fill-rule="nonzero"/></g><g clip-path="url(#05339aeca1)"><g clip-path="url(#29c6866365)"><path fill="#a6a6a6" d="M 4.6875 7.257812 L 145.371094 7.257812 L 145.371094 29.808594 L 4.6875 29.808594 Z M 4.6875 7.257812 " fill-opacity="1" fill-rule="nonzero"/></g></g><g clip-path="url(#79fabd9880)"><path fill="#000000" d="M 29.691406 17.398438 C 29.691406 19.320312 25.84375 20.449219 21.796875 20.664062 L 21.796875 19.714844 C 21.796875 19.523438 21.644531 19.371094 21.457031 19.371094 L 19.332031 19.371094 C 19.144531 19.371094 18.992188 19.523438 18.992188 19.714844 L 18.992188 20.664062 C 14.945312 20.449219 11.09375 19.320312 11.09375 17.398438 L 11.09375 14.5 C 11.09375 13.910156 11.570312 13.433594 12.152344 13.433594 L 28.636719 13.433594 C 29.21875 13.433594 29.691406 13.910156 29.691406 14.5 Z M 19.671875 22.128906 L 19.671875 20.054688 L 21.117188 20.054688 L 21.117188 22.128906 Z M 29.691406 24.976562 C 29.691406 25.5625 29.21875 26.039062 28.636719 26.039062 L 12.152344 26.039062 C 11.570312 26.039062 11.09375 25.5625 11.09375 24.976562 L 11.09375 18.996094 C 11.636719 19.574219 12.496094 20.066406 13.660156 20.460938 C 15.113281 20.949219 16.96875 21.257812 18.992188 21.355469 L 18.992188 22.472656 C 18.992188 22.664062 19.144531 22.816406 19.332031 22.816406 L 21.457031 22.816406 C 21.644531 22.816406 21.796875 22.664062 21.796875 22.472656 L 21.796875 21.355469 C 25.171875 21.195312 28.34375 20.441406 29.691406 19.003906 Z M 17.359375 11.792969 C 17.359375 11.425781 17.65625 11.128906 18.019531 11.128906 L 22.769531 11.128906 C 23.132812 11.128906 23.429688 11.425781 23.429688 11.792969 L 23.429688 12.746094 L 17.359375 12.746094 Z M 28.636719 12.746094 L 24.109375 12.746094 L 24.109375 11.792969 C 24.109375 11.046875 23.507812 10.441406 22.769531 10.441406 L 18.019531 10.441406 C 17.28125 10.441406 16.679688 11.046875 16.679688 11.792969 L 16.679688 12.746094 L 12.152344 12.746094 C 11.195312 12.746094 10.414062 13.53125 10.414062 14.5 L 10.414062 24.976562 C 10.414062 25.941406 11.195312 26.726562 12.152344 26.726562 L 28.636719 26.726562 C 29.59375 26.726562 30.371094 25.941406 30.371094 24.976562 L 30.371094 14.5 C 30.371094 13.53125 29.59375 12.746094 28.636719 12.746094 " fill-opacity="1" fill-rule="nonzero"/></g><g fill="#000000" fill-opacity="1"><g transform="translate(43.790047, 21.645452)"><g><path d="M 0.375 -0.28125 C 0.375 -0.613281 0.410156 -0.882812 0.484375 -1.09375 C 0.554688 -1.300781 0.679688 -1.492188 0.859375 -1.671875 C 1.035156 -1.847656 1.316406 -2.078125 1.703125 -2.359375 L 2.375 -2.84375 C 2.625 -3.03125 2.828125 -3.195312 2.984375 -3.34375 C 3.140625 -3.5 3.257812 -3.664062 3.34375 -3.84375 C 3.4375 -4.03125 3.484375 -4.234375 3.484375 -4.453125 C 3.484375 -4.816406 3.382812 -5.085938 3.1875 -5.265625 C 3 -5.453125 2.703125 -5.546875 2.296875 -5.546875 C 1.972656 -5.546875 1.6875 -5.46875 1.4375 -5.3125 C 1.1875 -5.164062 0.988281 -4.957031 0.84375 -4.6875 L 0.75 -4.671875 L 0.3125 -5.109375 C 0.519531 -5.453125 0.789062 -5.71875 1.125 -5.90625 C 1.457031 -6.09375 1.847656 -6.1875 2.296875 -6.1875 C 2.734375 -6.1875 3.09375 -6.113281 3.375 -5.96875 C 3.664062 -5.820312 3.878906 -5.617188 4.015625 -5.359375 C 4.148438 -5.097656 4.21875 -4.796875 4.21875 -4.453125 C 4.21875 -4.179688 4.160156 -3.925781 4.046875 -3.6875 C 3.929688 -3.445312 3.769531 -3.222656 3.5625 -3.015625 C 3.351562 -2.804688 3.09375 -2.585938 2.78125 -2.359375 L 2.09375 -1.859375 C 1.84375 -1.671875 1.648438 -1.507812 1.515625 -1.375 C 1.378906 -1.25 1.28125 -1.125 1.21875 -1 C 1.15625 -0.882812 1.125 -0.75 1.125 -0.59375 L 4.21875 -0.59375 L 4.21875 0 L 0.375 0 Z M 0.375 -0.28125 "/></g></g></g><g fill="#000000" fill-opacity="1"><g transform="translate(48.480486, 21.645452)"><g><path d="M 3 0.09375 C 2.550781 0.09375 2.148438 -0.015625 1.796875 -0.234375 C 1.441406 -0.453125 1.15625 -0.796875 0.9375 -1.265625 C 0.726562 -1.734375 0.625 -2.328125 0.625 -3.046875 C 0.625 -3.773438 0.726562 -4.375 0.9375 -4.84375 C 1.15625 -5.3125 1.441406 -5.648438 1.796875 -5.859375 C 2.148438 -6.078125 2.550781 -6.1875 3 -6.1875 C 3.445312 -6.1875 3.847656 -6.078125 4.203125 -5.859375 C 4.554688 -5.648438 4.835938 -5.3125 5.046875 -4.84375 C 5.265625 -4.375 5.375 -3.773438 5.375 -3.046875 C 5.375 -2.328125 5.265625 -1.734375 5.046875 -1.265625 C 4.835938 -0.796875 4.554688 -0.453125 4.203125 -0.234375 C 3.847656 -0.015625 3.445312 0.09375 3 0.09375 Z M 3 -0.578125 C 3.53125 -0.578125 3.929688 -0.765625 4.203125 -1.140625 C 4.484375 -1.523438 4.625 -2.160156 4.625 -3.046875 C 4.625 -3.929688 4.484375 -4.566406 4.203125 -4.953125 C 3.929688 -5.335938 3.53125 -5.53125 3 -5.53125 C 2.644531 -5.53125 2.347656 -5.445312 2.109375 -5.28125 C 1.867188 -5.125 1.6875 -4.863281 1.5625 -4.5 C 1.4375 -4.132812 1.375 -3.648438 1.375 -3.046875 C 1.375 -2.453125 1.4375 -1.972656 1.5625 -1.609375 C 1.6875 -1.242188 1.867188 -0.976562 2.109375 -0.8125 C 2.347656 -0.65625 2.644531 -0.578125 3 -0.578125 Z M 3 -0.578125 "/></g></g></g><g fill="#000000" fill-opacity="1"><g transform="translate(54.481242, 21.645452)"><g><path d="M 0.375 -0.28125 C 0.375 -0.613281 0.410156 -0.882812 0.484375 -1.09375 C 0.554688 -1.300781 0.679688 -1.492188 0.859375 -1.671875 C 1.035156 -1.847656 1.316406 -2.078125 1.703125 -2.359375 L 2.375 -2.84375 C 2.625 -3.03125 2.828125 -3.195312 2.984375 -3.34375 C 3.140625 -3.5 3.257812 -3.664062 3.34375 -3.84375 C 3.4375 -4.03125 3.484375 -4.234375 3.484375 -4.453125 C 3.484375 -4.816406 3.382812 -5.085938 3.1875 -5.265625 C 3 -5.453125 2.703125 -5.546875 2.296875 -5.546875 C 1.972656 -5.546875 1.6875 -5.46875 1.4375 -5.3125 C 1.1875 -5.164062 0.988281 -4.957031 0.84375 -4.6875 L 0.75 -4.671875 L 0.3125 -5.109375 C 0.519531 -5.453125 0.789062 -5.71875 1.125 -5.90625 C 1.457031 -6.09375 1.847656 -6.1875 2.296875 -6.1875 C 2.734375 -6.1875 3.09375 -6.113281 3.375 -5.96875 C 3.664062 -5.820312 3.878906 -5.617188 4.015625 -5.359375 C 4.148438 -5.097656 4.21875 -4.796875 4.21875 -4.453125 C 4.21875 -4.179688 4.160156 -3.925781 4.046875 -3.6875 C 3.929688 -3.445312 3.769531 -3.222656 3.5625 -3.015625 C 3.351562 -2.804688 3.09375 -2.585938 2.78125 -2.359375 L 2.09375 -1.859375 C 1.84375 -1.671875 1.648438 -1.507812 1.515625 -1.375 C 1.378906 -1.25 1.28125 -1.125 1.21875 -1 C 1.15625 -0.882812 1.125 -0.75 1.125 -0.59375 L 4.21875 -0.59375 L 4.21875 0 L 0.375 0 Z M 0.375 -0.28125 "/></g></g></g><g fill="#000000" fill-opacity="1"><g transform="translate(59.171681, 21.645452)"><g><path d="M 2.421875 0.09375 C 1.828125 0.09375 1.351562 -0.0390625 1 -0.3125 C 0.65625 -0.582031 0.429688 -0.953125 0.328125 -1.421875 L 0.859375 -1.671875 L 0.953125 -1.65625 C 1.066406 -1.289062 1.234375 -1.015625 1.453125 -0.828125 C 1.671875 -0.648438 1.992188 -0.5625 2.421875 -0.5625 C 2.847656 -0.5625 3.171875 -0.660156 3.390625 -0.859375 C 3.617188 -1.054688 3.734375 -1.347656 3.734375 -1.734375 C 3.734375 -2.109375 3.617188 -2.394531 3.390625 -2.59375 C 3.160156 -2.789062 2.800781 -2.890625 2.3125 -2.890625 L 1.65625 -2.890625 L 1.65625 -3.46875 L 2.234375 -3.46875 C 2.617188 -3.46875 2.925781 -3.5625 3.15625 -3.75 C 3.382812 -3.945312 3.5 -4.21875 3.5 -4.5625 C 3.5 -4.894531 3.398438 -5.144531 3.203125 -5.3125 C 3.003906 -5.476562 2.726562 -5.5625 2.375 -5.5625 C 1.757812 -5.5625 1.320312 -5.316406 1.0625 -4.828125 L 0.96875 -4.8125 L 0.5625 -5.25 C 0.726562 -5.53125 0.960938 -5.753906 1.265625 -5.921875 C 1.578125 -6.097656 1.945312 -6.1875 2.375 -6.1875 C 2.769531 -6.1875 3.101562 -6.125 3.375 -6 C 3.644531 -5.882812 3.847656 -5.710938 3.984375 -5.484375 C 4.128906 -5.253906 4.203125 -4.984375 4.203125 -4.671875 C 4.203125 -4.367188 4.113281 -4.101562 3.9375 -3.875 C 3.769531 -3.644531 3.546875 -3.46875 3.265625 -3.34375 L 3.265625 -3.25 C 3.660156 -3.15625 3.957031 -2.972656 4.15625 -2.703125 C 4.363281 -2.441406 4.46875 -2.117188 4.46875 -1.734375 C 4.46875 -1.148438 4.296875 -0.695312 3.953125 -0.375 C 3.609375 -0.0625 3.097656 0.09375 2.421875 0.09375 Z M 2.421875 0.09375 "/></g></g></g><g fill="#000000" fill-opacity="1"><g transform="translate(64.129191, 21.645452)"><g/></g></g><g fill="#000000" fill-opacity="1"><g transform="translate(66.224031, 21.645452)"><g><path d="M 2.671875 0.09375 C 2.285156 0.09375 1.9375 0.0390625 1.625 -0.0625 C 1.320312 -0.164062 1.066406 -0.300781 0.859375 -0.46875 C 0.660156 -0.644531 0.515625 -0.835938 0.421875 -1.046875 L 0.8125 -1.515625 L 0.90625 -1.515625 C 1.289062 -0.878906 1.878906 -0.5625 2.671875 -0.5625 C 3.128906 -0.5625 3.46875 -0.65625 3.6875 -0.84375 C 3.914062 -1.039062 4.03125 -1.3125 4.03125 -1.65625 C 4.03125 -1.851562 3.992188 -2.019531 3.921875 -2.15625 C 3.847656 -2.289062 3.722656 -2.40625 3.546875 -2.5 C 3.378906 -2.601562 3.148438 -2.691406 2.859375 -2.765625 L 2.140625 -2.953125 C 1.609375 -3.078125 1.21875 -3.28125 0.96875 -3.5625 C 0.71875 -3.84375 0.59375 -4.195312 0.59375 -4.625 C 0.59375 -4.925781 0.671875 -5.191406 0.828125 -5.421875 C 0.984375 -5.660156 1.210938 -5.847656 1.515625 -5.984375 C 1.816406 -6.117188 2.175781 -6.1875 2.59375 -6.1875 C 3.050781 -6.1875 3.4375 -6.117188 3.75 -5.984375 C 4.0625 -5.859375 4.3125 -5.664062 4.5 -5.40625 L 4.15625 -4.9375 L 4.046875 -4.9375 C 3.878906 -5.15625 3.675781 -5.3125 3.4375 -5.40625 C 3.195312 -5.507812 2.914062 -5.5625 2.59375 -5.5625 C 2.164062 -5.5625 1.84375 -5.476562 1.625 -5.3125 C 1.414062 -5.15625 1.3125 -4.929688 1.3125 -4.640625 C 1.3125 -4.359375 1.390625 -4.132812 1.546875 -3.96875 C 1.703125 -3.8125 1.96875 -3.6875 2.34375 -3.59375 L 3.078125 -3.421875 C 3.671875 -3.285156 4.097656 -3.070312 4.359375 -2.78125 C 4.628906 -2.5 4.765625 -2.132812 4.765625 -1.6875 C 4.765625 -1.34375 4.6875 -1.035156 4.53125 -0.765625 C 4.375 -0.503906 4.140625 -0.296875 3.828125 -0.140625 C 3.515625 0.015625 3.128906 0.09375 2.671875 0.09375 Z M 2.671875 0.09375 "/></g></g></g><g fill="#000000" fill-opacity="1"><g transform="translate(71.452785, 21.645452)"><g><path d="M 3.34375 0.09375 C 2.8125 0.09375 2.335938 -0.0195312 1.921875 -0.25 C 1.515625 -0.476562 1.191406 -0.828125 0.953125 -1.296875 C 0.722656 -1.765625 0.609375 -2.347656 0.609375 -3.046875 C 0.609375 -3.742188 0.722656 -4.328125 0.953125 -4.796875 C 1.191406 -5.265625 1.515625 -5.613281 1.921875 -5.84375 C 2.335938 -6.070312 2.8125 -6.1875 3.34375 -6.1875 C 3.875 -6.1875 4.34375 -6.070312 4.75 -5.84375 C 5.164062 -5.613281 5.488281 -5.265625 5.71875 -4.796875 C 5.957031 -4.328125 6.078125 -3.742188 6.078125 -3.046875 C 6.078125 -2.347656 5.957031 -1.765625 5.71875 -1.296875 C 5.488281 -0.828125 5.164062 -0.476562 4.75 -0.25 C 4.34375 -0.0195312 3.875 0.09375 3.34375 0.09375 Z M 3.34375 -0.578125 C 3.976562 -0.578125 4.460938 -0.773438 4.796875 -1.171875 C 5.140625 -1.566406 5.3125 -2.191406 5.3125 -3.046875 C 5.3125 -3.910156 5.140625 -4.539062 4.796875 -4.9375 C 4.460938 -5.332031 3.976562 -5.53125 3.34375 -5.53125 C 2.03125 -5.53125 1.375 -4.703125 1.375 -3.046875 C 1.375 -1.398438 2.03125 -0.578125 3.34375 -0.578125 Z M 3.34375 -0.578125 "/></g></g></g><g fill="#000000" fill-opacity="1"><g transform="translate(78.146257, 21.645452)"><g><path d="M 5.484375 0 L 4.71875 0 L 4.15625 -1.671875 L 1.5625 -1.671875 L 1 0 L 0.234375 0 L 2.375 -6.09375 L 3.359375 -6.09375 Z M 2.8125 -5.359375 L 1.765625 -2.28125 L 3.953125 -2.28125 L 2.90625 -5.359375 Z M 2.8125 -5.359375 "/></g></g></g><g fill="#000000" fill-opacity="1"><g transform="translate(83.879943, 21.645452)"><g/></g></g><g fill="#000000" fill-opacity="1"><g transform="translate(85.974783, 21.645452)"><g><path d="M 3.375 0.09375 C 2.84375 0.09375 2.363281 -0.0234375 1.9375 -0.265625 C 1.519531 -0.515625 1.191406 -0.875 0.953125 -1.34375 C 0.722656 -1.820312 0.609375 -2.390625 0.609375 -3.046875 C 0.609375 -3.710938 0.722656 -4.28125 0.953125 -4.75 C 1.191406 -5.21875 1.519531 -5.570312 1.9375 -5.8125 C 2.363281 -6.0625 2.84375 -6.1875 3.375 -6.1875 C 3.945312 -6.1875 4.421875 -6.078125 4.796875 -5.859375 C 5.171875 -5.648438 5.441406 -5.328125 5.609375 -4.890625 L 5.15625 -4.59375 L 5.046875 -4.59375 C 4.878906 -4.9375 4.660156 -5.179688 4.390625 -5.328125 C 4.128906 -5.472656 3.789062 -5.546875 3.375 -5.546875 C 2.988281 -5.546875 2.644531 -5.457031 2.34375 -5.28125 C 2.050781 -5.113281 1.816406 -4.84375 1.640625 -4.46875 C 1.460938 -4.101562 1.375 -3.628906 1.375 -3.046875 C 1.375 -2.472656 1.460938 -2 1.640625 -1.625 C 1.816406 -1.257812 2.050781 -0.988281 2.34375 -0.8125 C 2.644531 -0.644531 2.988281 -0.5625 3.375 -0.5625 C 3.8125 -0.5625 4.171875 -0.660156 4.453125 -0.859375 C 4.734375 -1.054688 4.941406 -1.378906 5.078125 -1.828125 L 5.1875 -1.828125 L 5.671875 -1.578125 C 5.523438 -1.046875 5.253906 -0.632812 4.859375 -0.34375 C 4.472656 -0.0507812 3.976562 0.09375 3.375 0.09375 Z M 3.375 0.09375 "/></g></g></g><g fill="#000000" fill-opacity="1"><g transform="translate(91.958848, 21.645452)"><g><path d="M 5.484375 0 L 4.71875 0 L 4.15625 -1.671875 L 1.5625 -1.671875 L 1 0 L 0.234375 0 L 2.375 -6.09375 L 3.359375 -6.09375 Z M 2.8125 -5.359375 L 1.765625 -2.28125 L 3.953125 -2.28125 L 2.90625 -5.359375 Z M 2.8125 -5.359375 "/></g></g></g><g fill="#000000" fill-opacity="1"><g transform="translate(97.69253, 21.645452)"><g><path d="M 2.671875 0.09375 C 2.285156 0.09375 1.9375 0.0390625 1.625 -0.0625 C 1.320312 -0.164062 1.066406 -0.300781 0.859375 -0.46875 C 0.660156 -0.644531 0.515625 -0.835938 0.421875 -1.046875 L 0.8125 -1.515625 L 0.90625 -1.515625 C 1.289062 -0.878906 1.878906 -0.5625 2.671875 -0.5625 C 3.128906 -0.5625 3.46875 -0.65625 3.6875 -0.84375 C 3.914062 -1.039062 4.03125 -1.3125 4.03125 -1.65625 C 4.03125 -1.851562 3.992188 -2.019531 3.921875 -2.15625 C 3.847656 -2.289062 3.722656 -2.40625 3.546875 -2.5 C 3.378906 -2.601562 3.148438 -2.691406 2.859375 -2.765625 L 2.140625 -2.953125 C 1.609375 -3.078125 1.21875 -3.28125 0.96875 -3.5625 C 0.71875 -3.84375 0.59375 -4.195312 0.59375 -4.625 C 0.59375 -4.925781 0.671875 -5.191406 0.828125 -5.421875 C 0.984375 -5.660156 1.210938 -5.847656 1.515625 -5.984375 C 1.816406 -6.117188 2.175781 -6.1875 2.59375 -6.1875 C 3.050781 -6.1875 3.4375 -6.117188 3.75 -5.984375 C 4.0625 -5.859375 4.3125 -5.664062 4.5 -5.40625 L 4.15625 -4.9375 L 4.046875 -4.9375 C 3.878906 -5.15625 3.675781 -5.3125 3.4375 -5.40625 C 3.195312 -5.507812 2.914062 -5.5625 2.59375 -5.5625 C 2.164062 -5.5625 1.84375 -5.476562 1.625 -5.3125 C 1.414062 -5.15625 1.3125 -4.929688 1.3125 -4.640625 C 1.3125 -4.359375 1.390625 -4.132812 1.546875 -3.96875 C 1.703125 -3.8125 1.96875 -3.6875 2.34375 -3.59375 L 3.078125 -3.421875 C 3.671875 -3.285156 4.097656 -3.070312 4.359375 -2.78125 C 4.628906 -2.5 4.765625 -2.132812 4.765625 -1.6875 C 4.765625 -1.34375 4.6875 -1.035156 4.53125 -0.765625 C 4.375 -0.503906 4.140625 -0.296875 3.828125 -0.140625 C 3.515625 0.015625 3.128906 0.09375 2.671875 0.09375 Z M 2.671875 0.09375 "/></g></g></g><g fill="#000000" fill-opacity="1"><g transform="translate(102.921281, 21.645452)"><g><path d="M 1.640625 -2.875 L 1.640625 -0.59375 L 4.75 -0.59375 L 4.75 0 L 0.921875 0 L 0.921875 -6.09375 L 4.6875 -6.09375 L 4.6875 -5.515625 L 1.640625 -5.515625 L 1.640625 -3.46875 L 4.328125 -3.46875 L 4.328125 -2.875 Z M 1.640625 -2.875 "/></g></g></g><g fill="#000000" fill-opacity="1"><g transform="translate(108.074924, 21.645452)"><g/></g></g><g fill="#000000" fill-opacity="1"><g transform="translate(110.169764, 21.645452)"><g><path d="M 2.671875 0.09375 C 2.285156 0.09375 1.9375 0.0390625 1.625 -0.0625 C 1.320312 -0.164062 1.066406 -0.300781 0.859375 -0.46875 C 0.660156 -0.644531 0.515625 -0.835938 0.421875 -1.046875 L 0.8125 -1.515625 L 0.90625 -1.515625 C 1.289062 -0.878906 1.878906 -0.5625 2.671875 -0.5625 C 3.128906 -0.5625 3.46875 -0.65625 3.6875 -0.84375 C 3.914062 -1.039062 4.03125 -1.3125 4.03125 -1.65625 C 4.03125 -1.851562 3.992188 -2.019531 3.921875 -2.15625 C 3.847656 -2.289062 3.722656 -2.40625 3.546875 -2.5 C 3.378906 -2.601562 3.148438 -2.691406 2.859375 -2.765625 L 2.140625 -2.953125 C 1.609375 -3.078125 1.21875 -3.28125 0.96875 -3.5625 C 0.71875 -3.84375 0.59375 -4.195312 0.59375 -4.625 C 0.59375 -4.925781 0.671875 -5.191406 0.828125 -5.421875 C 0.984375 -5.660156 1.210938 -5.847656 1.515625 -5.984375 C 1.816406 -6.117188 2.175781 -6.1875 2.59375 -6.1875 C 3.050781 -6.1875 3.4375 -6.117188 3.75 -5.984375 C 4.0625 -5.859375 4.3125 -5.664062 4.5 -5.40625 L 4.15625 -4.9375 L 4.046875 -4.9375 C 3.878906 -5.15625 3.675781 -5.3125 3.4375 -5.40625 C 3.195312 -5.507812 2.914062 -5.5625 2.59375 -5.5625 C 2.164062 -5.5625 1.84375 -5.476562 1.625 -5.3125 C 1.414062 -5.15625 1.3125 -4.929688 1.3125 -4.640625 C 1.3125 -4.359375 1.390625 -4.132812 1.546875 -3.96875 C 1.703125 -3.8125 1.96875 -3.6875 2.34375 -3.59375 L 3.078125 -3.421875 C 3.671875 -3.285156 4.097656 -3.070312 4.359375 -2.78125 C 4.628906 -2.5 4.765625 -2.132812 4.765625 -1.6875 C 4.765625 -1.34375 4.6875 -1.035156 4.53125 -0.765625 C 4.375 -0.503906 4.140625 -0.296875 3.828125 -0.140625 C 3.515625 0.015625 3.128906 0.09375 2.671875 0.09375 Z M 2.671875 0.09375 "/></g></g></g><g fill="#000000" fill-opacity="1"><g transform="translate(115.398521, 21.645452)"><g><path d="M 4.765625 -6.09375 L 4.765625 -5.484375 L 2.84375 -5.484375 L 2.84375 0 L 2.140625 0 L 2.140625 -5.484375 L 0.21875 -5.484375 L 0.21875 -6.09375 Z M 4.765625 -6.09375 "/></g></g></g><g fill="#000000" fill-opacity="1"><g transform="translate(120.381069, 21.645452)"><g><path d="M 3.140625 0.09375 C 2.398438 0.09375 1.835938 -0.09375 1.453125 -0.46875 C 1.066406 -0.851562 0.875 -1.421875 0.875 -2.171875 L 0.875 -6.09375 L 1.578125 -6.09375 L 1.578125 -2.171875 C 1.578125 -1.640625 1.707031 -1.238281 1.96875 -0.96875 C 2.226562 -0.707031 2.617188 -0.578125 3.140625 -0.578125 C 4.179688 -0.578125 4.703125 -1.109375 4.703125 -2.171875 L 4.703125 -6.09375 L 5.421875 -6.09375 L 5.421875 -2.171875 C 5.421875 -1.421875 5.226562 -0.851562 4.84375 -0.46875 C 4.457031 -0.09375 3.890625 0.09375 3.140625 0.09375 Z M 3.140625 0.09375 "/></g></g></g><g fill="#000000" fill-opacity="1"><g transform="translate(126.669759, 21.645452)"><g><path d="M 2.890625 -6.09375 C 3.515625 -6.09375 4.046875 -5.984375 4.484375 -5.765625 C 4.929688 -5.546875 5.273438 -5.207031 5.515625 -4.75 C 5.753906 -4.300781 5.875 -3.734375 5.875 -3.046875 C 5.875 -2.367188 5.753906 -1.800781 5.515625 -1.34375 C 5.273438 -0.882812 4.929688 -0.546875 4.484375 -0.328125 C 4.046875 -0.109375 3.515625 0 2.890625 0 L 0.921875 0 L 0.921875 -6.09375 Z M 2.828125 -0.609375 C 3.335938 -0.609375 3.757812 -0.6875 4.09375 -0.84375 C 4.425781 -1 4.675781 -1.253906 4.84375 -1.609375 C 5.019531 -1.972656 5.109375 -2.453125 5.109375 -3.046875 C 5.109375 -3.640625 5.019531 -4.113281 4.84375 -4.46875 C 4.675781 -4.832031 4.425781 -5.09375 4.09375 -5.25 C 3.757812 -5.40625 3.335938 -5.484375 2.828125 -5.484375 L 1.640625 -5.484375 L 1.640625 -0.609375 Z M 2.828125 -0.609375 "/></g></g></g><g fill="#000000" fill-opacity="1"><g transform="translate(133.154582, 21.645452)"><g><path d="M 2.984375 0 L 2.265625 0 L 2.265625 -2.390625 L 0.15625 -6.09375 L 0.9375 -6.09375 L 2.59375 -3.25 L 2.6875 -3.25 L 4.328125 -6.09375 L 5.09375 -6.09375 L 2.984375 -2.390625 Z M 2.984375 0 "/></g></g></g><path stroke-linecap="butt" transform="matrix(-0.00398342, 0.72836, -0.74012, -0.00404774, 37.560645, 7.260958)" fill="none" stroke-linejoin="miter" d="M -0.00154596 0.498898 L 30.49288 0.498387 " stroke="#d9d9d9" stroke-width="1" stroke-opacity="1" stroke-miterlimit="4"/></svg>