<svg xmlns="http://www.w3.org/2000/svg" xmlns:xlink="http://www.w3.org/1999/xlink" width="800" zoomAndPan="magnify" viewBox="0 0 600 149.999998" height="200" preserveAspectRatio="xMidYMid meet" version="1.0"><defs><g/><clipPath id="74dead7366"><path d="M 16.601562 22.320312 L 583.71875 22.320312 L 583.71875 128 L 16.601562 128 Z M 16.601562 22.320312 " clip-rule="nonzero"/></clipPath><clipPath id="3aaebbca88"><path d="M 37.601562 22.320312 L 562.398438 22.320312 C 573.996094 22.320312 583.398438 31.722656 583.398438 43.320312 L 583.398438 106.679688 C 583.398438 118.277344 573.996094 127.679688 562.398438 127.679688 L 37.601562 127.679688 C 26.003906 127.679688 16.601562 118.277344 16.601562 106.679688 L 16.601562 43.320312 C 16.601562 31.722656 26.003906 22.320312 37.601562 22.320312 " clip-rule="nonzero"/></clipPath><clipPath id="e1da7eb821"><path d="M 39.746094 42.269531 L 120.636719 42.269531 L 120.636719 107.863281 L 39.746094 107.863281 Z M 39.746094 42.269531 " clip-rule="nonzero"/></clipPath></defs><rect x="-60" width="720" fill="#ffffff" y="-15" height="179.999997" fill-opacity="1"/><rect x="-60" width="720" fill="#ffffff" y="-15" height="179.999997" fill-opacity="1"/><rect x="-60" width="720" fill="#ffffff" y="-15" height="179.999997" fill-opacity="1"/><g clip-path="url(#74dead7366)"><g clip-path="url(#3aaebbca88)"><path fill="#e6e7e8" d="M 16.601562 22.320312 L 583.71875 22.320312 L 583.71875 127.089844 L 16.601562 127.089844 Z M 16.601562 22.320312 " fill-opacity="1" fill-rule="nonzero"/></g></g><g clip-path="url(#e1da7eb821)"><path fill="#000000" d="M 117.878906 70.289062 C 117.878906 78.039062 102.273438 82.589844 85.878906 83.449219 L 85.878906 79.617188 C 85.878906 78.851562 85.261719 78.234375 84.5 78.234375 L 75.878906 78.234375 C 75.117188 78.234375 74.503906 78.851562 74.503906 79.617188 L 74.503906 83.449219 C 58.109375 82.589844 42.5 78.039062 42.5 70.289062 L 42.5 58.609375 C 42.5 56.246094 44.421875 54.320312 46.78125 54.320312 L 113.601562 54.320312 C 115.960938 54.320312 117.878906 56.246094 117.878906 58.609375 Z M 77.257812 89.351562 L 77.257812 81 L 83.121094 81 L 83.121094 89.351562 Z M 117.878906 100.8125 C 117.878906 103.179688 115.960938 105.105469 113.601562 105.105469 L 46.78125 105.105469 C 44.421875 105.105469 42.5 103.179688 42.5 100.8125 L 42.5 76.722656 C 44.699219 79.054688 48.183594 81.046875 52.894531 82.621094 C 58.78125 84.589844 66.304688 85.835938 74.503906 86.230469 L 74.503906 90.734375 C 74.503906 91.496094 75.117188 92.117188 75.878906 92.117188 L 84.5 92.117188 C 85.261719 92.117188 85.878906 91.496094 85.878906 90.734375 L 85.878906 86.230469 C 99.5625 85.582031 112.417969 82.550781 117.878906 76.761719 Z M 67.894531 47.707031 C 67.894531 46.230469 69.089844 45.035156 70.558594 45.035156 L 89.824219 45.035156 C 91.289062 45.035156 92.484375 46.230469 92.484375 47.707031 L 92.484375 51.554688 L 67.894531 51.554688 Z M 113.601562 51.554688 L 95.242188 51.554688 L 95.242188 47.707031 C 95.242188 44.707031 92.8125 42.269531 89.824219 42.269531 L 70.558594 42.269531 C 67.570312 42.269531 65.140625 44.707031 65.140625 47.707031 L 65.140625 51.554688 L 46.78125 51.554688 C 42.902344 51.554688 39.746094 54.71875 39.746094 58.609375 L 39.746094 100.8125 C 39.746094 104.707031 42.902344 107.871094 46.78125 107.871094 L 113.601562 107.871094 C 117.480469 107.871094 120.636719 104.707031 120.636719 100.8125 L 120.636719 58.609375 C 120.636719 54.71875 117.480469 51.554688 113.601562 51.554688 " fill-opacity="1" fill-rule="nonzero"/></g><g fill="#000000" fill-opacity="1"><g transform="translate(174.649758, 87.552031)"><g><path d="M 1.484375 -1.125 C 1.484375 -2.488281 1.628906 -3.585938 1.921875 -4.421875 C 2.222656 -5.253906 2.734375 -6.03125 3.453125 -6.75 C 4.171875 -7.46875 5.320312 -8.398438 6.90625 -9.546875 L 9.609375 -11.515625 C 10.609375 -12.253906 11.421875 -12.929688 12.046875 -13.546875 C 12.679688 -14.160156 13.179688 -14.832031 13.546875 -15.5625 C 13.921875 -16.289062 14.109375 -17.101562 14.109375 -18 C 14.109375 -19.457031 13.71875 -20.554688 12.9375 -21.296875 C 12.164062 -22.046875 10.953125 -22.421875 9.296875 -22.421875 C 7.992188 -22.421875 6.832031 -22.113281 5.8125 -21.5 C 4.800781 -20.894531 3.992188 -20.035156 3.390625 -18.921875 L 3 -18.859375 L 1.265625 -20.6875 C 2.097656 -22.03125 3.191406 -23.085938 4.546875 -23.859375 C 5.898438 -24.628906 7.484375 -25.015625 9.296875 -25.015625 C 11.046875 -25.015625 12.5 -24.71875 13.65625 -24.125 C 14.820312 -23.53125 15.675781 -22.707031 16.21875 -21.65625 C 16.769531 -20.601562 17.046875 -19.382812 17.046875 -18 C 17.046875 -16.894531 16.816406 -15.863281 16.359375 -14.90625 C 15.898438 -13.957031 15.25 -13.0625 14.40625 -12.21875 C 13.5625 -11.375 12.503906 -10.484375 11.234375 -9.546875 L 8.484375 -7.546875 C 7.460938 -6.785156 6.675781 -6.140625 6.125 -5.609375 C 5.570312 -5.085938 5.164062 -4.578125 4.90625 -4.078125 C 4.65625 -3.578125 4.53125 -3.015625 4.53125 -2.390625 L 17.046875 -2.390625 L 17.046875 0 L 1.484375 0 Z M 1.484375 -1.125 "/></g></g></g><g fill="#000000" fill-opacity="1"><g transform="translate(193.608142, 87.552031)"><g><path d="M 12.125 0.359375 C 10.3125 0.359375 8.6875 -0.078125 7.25 -0.953125 C 5.8125 -1.828125 4.664062 -3.207031 3.8125 -5.09375 C 2.957031 -6.988281 2.53125 -9.398438 2.53125 -12.328125 C 2.53125 -15.253906 2.957031 -17.664062 3.8125 -19.5625 C 4.664062 -21.457031 5.8125 -22.835938 7.25 -23.703125 C 8.6875 -24.578125 10.3125 -25.015625 12.125 -25.015625 C 13.9375 -25.015625 15.5625 -24.578125 17 -23.703125 C 18.4375 -22.835938 19.578125 -21.457031 20.421875 -19.5625 C 21.273438 -17.664062 21.703125 -15.253906 21.703125 -12.328125 C 21.703125 -9.398438 21.273438 -6.988281 20.421875 -5.09375 C 19.578125 -3.207031 18.4375 -1.828125 17 -0.953125 C 15.5625 -0.078125 13.9375 0.359375 12.125 0.359375 Z M 12.125 -2.328125 C 14.269531 -2.328125 15.894531 -3.097656 17 -4.640625 C 18.113281 -6.191406 18.671875 -8.753906 18.671875 -12.328125 C 18.671875 -15.898438 18.113281 -18.457031 17 -20 C 15.894531 -21.550781 14.269531 -22.328125 12.125 -22.328125 C 10.707031 -22.328125 9.515625 -22 8.546875 -21.34375 C 7.585938 -20.695312 6.847656 -19.632812 6.328125 -18.15625 C 5.816406 -16.6875 5.5625 -14.742188 5.5625 -12.328125 C 5.5625 -9.910156 5.816406 -7.960938 6.328125 -6.484375 C 6.847656 -5.015625 7.585938 -3.953125 8.546875 -3.296875 C 9.515625 -2.648438 10.707031 -2.328125 12.125 -2.328125 Z M 12.125 -2.328125 "/></g></g></g><g fill="#000000" fill-opacity="1"><g transform="translate(217.862728, 87.552031)"><g><path d="M 1.484375 -1.125 C 1.484375 -2.488281 1.628906 -3.585938 1.921875 -4.421875 C 2.222656 -5.253906 2.734375 -6.03125 3.453125 -6.75 C 4.171875 -7.46875 5.320312 -8.398438 6.90625 -9.546875 L 9.609375 -11.515625 C 10.609375 -12.253906 11.421875 -12.929688 12.046875 -13.546875 C 12.679688 -14.160156 13.179688 -14.832031 13.546875 -15.5625 C 13.921875 -16.289062 14.109375 -17.101562 14.109375 -18 C 14.109375 -19.457031 13.71875 -20.554688 12.9375 -21.296875 C 12.164062 -22.046875 10.953125 -22.421875 9.296875 -22.421875 C 7.992188 -22.421875 6.832031 -22.113281 5.8125 -21.5 C 4.800781 -20.894531 3.992188 -20.035156 3.390625 -18.921875 L 3 -18.859375 L 1.265625 -20.6875 C 2.097656 -22.03125 3.191406 -23.085938 4.546875 -23.859375 C 5.898438 -24.628906 7.484375 -25.015625 9.296875 -25.015625 C 11.046875 -25.015625 12.5 -24.71875 13.65625 -24.125 C 14.820312 -23.53125 15.675781 -22.707031 16.21875 -21.65625 C 16.769531 -20.601562 17.046875 -19.382812 17.046875 -18 C 17.046875 -16.894531 16.816406 -15.863281 16.359375 -14.90625 C 15.898438 -13.957031 15.25 -13.0625 14.40625 -12.21875 C 13.5625 -11.375 12.503906 -10.484375 11.234375 -9.546875 L 8.484375 -7.546875 C 7.460938 -6.785156 6.675781 -6.140625 6.125 -5.609375 C 5.570312 -5.085938 5.164062 -4.578125 4.90625 -4.078125 C 4.65625 -3.578125 4.53125 -3.015625 4.53125 -2.390625 L 17.046875 -2.390625 L 17.046875 0 L 1.484375 0 Z M 1.484375 -1.125 "/></g></g></g><g fill="#000000" fill-opacity="1"><g transform="translate(236.821112, 87.552031)"><g><path d="M 9.765625 0.359375 C 7.367188 0.359375 5.46875 -0.179688 4.0625 -1.265625 C 2.65625 -2.347656 1.742188 -3.84375 1.328125 -5.75 L 3.484375 -6.734375 L 3.875 -6.65625 C 4.300781 -5.1875 4.960938 -4.085938 5.859375 -3.359375 C 6.753906 -2.628906 8.054688 -2.265625 9.765625 -2.265625 C 11.503906 -2.265625 12.828125 -2.660156 13.734375 -3.453125 C 14.648438 -4.253906 15.109375 -5.429688 15.109375 -6.984375 C 15.109375 -8.503906 14.644531 -9.660156 13.71875 -10.453125 C 12.789062 -11.253906 11.332031 -11.65625 9.34375 -11.65625 L 6.65625 -11.65625 L 6.65625 -14.046875 L 9.0625 -14.046875 C 10.613281 -14.046875 11.847656 -14.429688 12.765625 -15.203125 C 13.679688 -15.972656 14.140625 -17.0625 14.140625 -18.46875 C 14.140625 -19.8125 13.738281 -20.816406 12.9375 -21.484375 C 12.144531 -22.148438 11.035156 -22.484375 9.609375 -22.484375 C 7.128906 -22.484375 5.359375 -21.492188 4.296875 -19.515625 L 3.90625 -19.453125 L 2.296875 -21.21875 C 2.960938 -22.351562 3.914062 -23.269531 5.15625 -23.96875 C 6.40625 -24.664062 7.890625 -25.015625 9.609375 -25.015625 C 11.191406 -25.015625 12.535156 -24.769531 13.640625 -24.28125 C 14.742188 -23.789062 15.582031 -23.082031 16.15625 -22.15625 C 16.726562 -21.238281 17.015625 -20.140625 17.015625 -18.859375 C 17.015625 -17.640625 16.660156 -16.570312 15.953125 -15.65625 C 15.253906 -14.738281 14.328125 -14.019531 13.171875 -13.5 L 13.171875 -13.140625 C 14.804688 -12.742188 16.03125 -12.007812 16.84375 -10.9375 C 17.664062 -9.863281 18.078125 -8.546875 18.078125 -6.984375 C 18.078125 -4.640625 17.378906 -2.828125 15.984375 -1.546875 C 14.597656 -0.273438 12.523438 0.359375 9.765625 0.359375 Z M 9.765625 0.359375 "/></g></g></g><g fill="#000000" fill-opacity="1"><g transform="translate(256.858976, 87.552031)"><g/></g></g><g fill="#000000" fill-opacity="1"><g transform="translate(265.326155, 87.552031)"><g><path d="M 10.78125 0.359375 C 9.226562 0.359375 7.832031 0.148438 6.59375 -0.265625 C 5.363281 -0.691406 4.335938 -1.25 3.515625 -1.9375 C 2.703125 -2.625 2.09375 -3.378906 1.6875 -4.203125 L 3.265625 -6.125 L 3.6875 -6.125 C 5.21875 -3.550781 7.582031 -2.265625 10.78125 -2.265625 C 12.632812 -2.265625 14.015625 -2.648438 14.921875 -3.421875 C 15.828125 -4.203125 16.28125 -5.28125 16.28125 -6.65625 C 16.28125 -7.46875 16.128906 -8.15625 15.828125 -8.71875 C 15.535156 -9.28125 15.046875 -9.757812 14.359375 -10.15625 C 13.671875 -10.5625 12.738281 -10.910156 11.5625 -11.203125 L 8.671875 -11.90625 C 6.523438 -12.425781 4.941406 -13.25 3.921875 -14.375 C 2.898438 -15.507812 2.390625 -16.941406 2.390625 -18.671875 C 2.390625 -19.898438 2.703125 -20.992188 3.328125 -21.953125 C 3.960938 -22.910156 4.882812 -23.660156 6.09375 -24.203125 C 7.3125 -24.742188 8.765625 -25.015625 10.453125 -25.015625 C 12.304688 -25.015625 13.875 -24.753906 15.15625 -24.234375 C 16.4375 -23.710938 17.457031 -22.925781 18.21875 -21.875 L 16.796875 -19.96875 L 16.375 -19.96875 C 15.664062 -20.832031 14.828125 -21.46875 13.859375 -21.875 C 12.898438 -22.28125 11.765625 -22.484375 10.453125 -22.484375 C 8.742188 -22.484375 7.453125 -22.148438 6.578125 -21.484375 C 5.710938 -20.828125 5.28125 -19.910156 5.28125 -18.734375 C 5.28125 -17.628906 5.597656 -16.742188 6.234375 -16.078125 C 6.878906 -15.421875 7.960938 -14.914062 9.484375 -14.5625 L 12.4375 -13.84375 C 14.832031 -13.28125 16.566406 -12.414062 17.640625 -11.25 C 18.710938 -10.09375 19.25 -8.609375 19.25 -6.796875 C 19.25 -5.398438 18.9375 -4.164062 18.3125 -3.09375 C 17.6875 -2.019531 16.738281 -1.175781 15.46875 -0.5625 C 14.195312 0.0507812 12.632812 0.359375 10.78125 0.359375 Z M 10.78125 0.359375 "/></g></g></g><g fill="#000000" fill-opacity="1"><g transform="translate(286.460367, 87.552031)"><g><path d="M 13.53125 0.359375 C 11.394531 0.359375 9.492188 -0.0976562 7.828125 -1.015625 C 6.160156 -1.941406 4.847656 -3.351562 3.890625 -5.25 C 2.941406 -7.144531 2.46875 -9.503906 2.46875 -12.328125 C 2.46875 -15.148438 2.941406 -17.507812 3.890625 -19.40625 C 4.847656 -21.300781 6.160156 -22.707031 7.828125 -23.625 C 9.492188 -24.550781 11.394531 -25.015625 13.53125 -25.015625 C 15.664062 -25.015625 17.566406 -24.550781 19.234375 -23.625 C 20.898438 -22.707031 22.207031 -21.300781 23.15625 -19.40625 C 24.113281 -17.507812 24.59375 -15.148438 24.59375 -12.328125 C 24.59375 -9.503906 24.113281 -7.144531 23.15625 -5.25 C 22.207031 -3.351562 20.898438 -1.941406 19.234375 -1.015625 C 17.566406 -0.0976562 15.664062 0.359375 13.53125 0.359375 Z M 13.53125 -2.328125 C 16.09375 -2.328125 18.054688 -3.128906 19.421875 -4.734375 C 20.796875 -6.335938 21.484375 -8.867188 21.484375 -12.328125 C 21.484375 -15.796875 20.796875 -18.328125 19.421875 -19.921875 C 18.054688 -21.523438 16.09375 -22.328125 13.53125 -22.328125 C 8.21875 -22.328125 5.5625 -18.992188 5.5625 -12.328125 C 5.5625 -5.660156 8.21875 -2.328125 13.53125 -2.328125 Z M 13.53125 -2.328125 "/></g></g></g><g fill="#000000" fill-opacity="1"><g transform="translate(313.514857, 87.552031)"><g><path d="M 22.203125 0 L 19.09375 0 L 16.8125 -6.765625 L 6.3125 -6.765625 L 4.015625 0 L 0.984375 0 L 9.578125 -24.65625 L 13.59375 -24.65625 Z M 11.359375 -21.671875 L 7.125 -9.1875 L 15.984375 -9.1875 L 11.78125 -21.671875 Z M 11.359375 -21.671875 "/></g></g></g><g fill="#000000" fill-opacity="1"><g transform="translate(336.689962, 87.552031)"><g/></g></g><g fill="#000000" fill-opacity="1"><g transform="translate(345.157141, 87.552031)"><g><path d="M 13.625 0.359375 C 11.46875 0.359375 9.546875 -0.132812 7.859375 -1.125 C 6.171875 -2.113281 4.847656 -3.5625 3.890625 -5.46875 C 2.941406 -7.375 2.46875 -9.660156 2.46875 -12.328125 C 2.46875 -14.992188 2.941406 -17.28125 3.890625 -19.1875 C 4.847656 -21.09375 6.171875 -22.539062 7.859375 -23.53125 C 9.546875 -24.519531 11.46875 -25.015625 13.625 -25.015625 C 15.9375 -25.015625 17.851562 -24.578125 19.375 -23.703125 C 20.90625 -22.835938 22.007812 -21.523438 22.6875 -19.765625 L 20.828125 -18.53125 L 20.40625 -18.53125 C 19.738281 -19.9375 18.863281 -20.9375 17.78125 -21.53125 C 16.695312 -22.125 15.3125 -22.421875 13.625 -22.421875 C 12.070312 -22.421875 10.691406 -22.070312 9.484375 -21.375 C 8.285156 -20.6875 7.332031 -19.59375 6.625 -18.09375 C 5.914062 -16.59375 5.5625 -14.671875 5.5625 -12.328125 C 5.5625 -9.992188 5.914062 -8.078125 6.625 -6.578125 C 7.332031 -5.078125 8.285156 -3.984375 9.484375 -3.296875 C 10.691406 -2.609375 12.070312 -2.265625 13.625 -2.265625 C 15.414062 -2.265625 16.878906 -2.664062 18.015625 -3.46875 C 19.148438 -4.269531 19.992188 -5.570312 20.546875 -7.375 L 20.96875 -7.375 L 22.90625 -6.40625 C 22.320312 -4.226562 21.238281 -2.554688 19.65625 -1.390625 C 18.082031 -0.222656 16.070312 0.359375 13.625 0.359375 Z M 13.625 0.359375 "/></g></g></g><g fill="#000000" fill-opacity="1"><g transform="translate(369.344259, 87.552031)"><g><path d="M 22.203125 0 L 19.09375 0 L 16.8125 -6.765625 L 6.3125 -6.765625 L 4.015625 0 L 0.984375 0 L 9.578125 -24.65625 L 13.59375 -24.65625 Z M 11.359375 -21.671875 L 7.125 -9.1875 L 15.984375 -9.1875 L 11.78125 -21.671875 Z M 11.359375 -21.671875 "/></g></g></g><g fill="#000000" fill-opacity="1"><g transform="translate(392.519352, 87.552031)"><g><path d="M 10.78125 0.359375 C 9.226562 0.359375 7.832031 0.148438 6.59375 -0.265625 C 5.363281 -0.691406 4.335938 -1.25 3.515625 -1.9375 C 2.703125 -2.625 2.09375 -3.378906 1.6875 -4.203125 L 3.265625 -6.125 L 3.6875 -6.125 C 5.21875 -3.550781 7.582031 -2.265625 10.78125 -2.265625 C 12.632812 -2.265625 14.015625 -2.648438 14.921875 -3.421875 C 15.828125 -4.203125 16.28125 -5.28125 16.28125 -6.65625 C 16.28125 -7.46875 16.128906 -8.15625 15.828125 -8.71875 C 15.535156 -9.28125 15.046875 -9.757812 14.359375 -10.15625 C 13.671875 -10.5625 12.738281 -10.910156 11.5625 -11.203125 L 8.671875 -11.90625 C 6.523438 -12.425781 4.941406 -13.25 3.921875 -14.375 C 2.898438 -15.507812 2.390625 -16.941406 2.390625 -18.671875 C 2.390625 -19.898438 2.703125 -20.992188 3.328125 -21.953125 C 3.960938 -22.910156 4.882812 -23.660156 6.09375 -24.203125 C 7.3125 -24.742188 8.765625 -25.015625 10.453125 -25.015625 C 12.304688 -25.015625 13.875 -24.753906 15.15625 -24.234375 C 16.4375 -23.710938 17.457031 -22.925781 18.21875 -21.875 L 16.796875 -19.96875 L 16.375 -19.96875 C 15.664062 -20.832031 14.828125 -21.46875 13.859375 -21.875 C 12.898438 -22.28125 11.765625 -22.484375 10.453125 -22.484375 C 8.742188 -22.484375 7.453125 -22.148438 6.578125 -21.484375 C 5.710938 -20.828125 5.28125 -19.910156 5.28125 -18.734375 C 5.28125 -17.628906 5.597656 -16.742188 6.234375 -16.078125 C 6.878906 -15.421875 7.960938 -14.914062 9.484375 -14.5625 L 12.4375 -13.84375 C 14.832031 -13.28125 16.566406 -12.414062 17.640625 -11.25 C 18.710938 -10.09375 19.25 -8.609375 19.25 -6.796875 C 19.25 -5.398438 18.9375 -4.164062 18.3125 -3.09375 C 17.6875 -2.019531 16.738281 -1.175781 15.46875 -0.5625 C 14.195312 0.0507812 12.632812 0.359375 10.78125 0.359375 Z M 10.78125 0.359375 "/></g></g></g><g fill="#000000" fill-opacity="1"><g transform="translate(413.653552, 87.552031)"><g><path d="M 6.625 -11.625 L 6.625 -2.390625 L 19.203125 -2.390625 L 19.203125 0 L 3.734375 0 L 3.734375 -24.65625 L 18.921875 -24.65625 L 18.921875 -22.265625 L 6.625 -22.265625 L 6.625 -14.015625 L 17.46875 -14.015625 L 17.46875 -11.625 Z M 6.625 -11.625 "/></g></g></g><g fill="#000000" fill-opacity="1"><g transform="translate(434.484172, 87.552031)"><g/></g></g><g fill="#000000" fill-opacity="1"><g transform="translate(442.95135, 87.552031)"><g><path d="M 10.78125 0.359375 C 9.226562 0.359375 7.832031 0.148438 6.59375 -0.265625 C 5.363281 -0.691406 4.335938 -1.25 3.515625 -1.9375 C 2.703125 -2.625 2.09375 -3.378906 1.6875 -4.203125 L 3.265625 -6.125 L 3.6875 -6.125 C 5.21875 -3.550781 7.582031 -2.265625 10.78125 -2.265625 C 12.632812 -2.265625 14.015625 -2.648438 14.921875 -3.421875 C 15.828125 -4.203125 16.28125 -5.28125 16.28125 -6.65625 C 16.28125 -7.46875 16.128906 -8.15625 15.828125 -8.71875 C 15.535156 -9.28125 15.046875 -9.757812 14.359375 -10.15625 C 13.671875 -10.5625 12.738281 -10.910156 11.5625 -11.203125 L 8.671875 -11.90625 C 6.523438 -12.425781 4.941406 -13.25 3.921875 -14.375 C 2.898438 -15.507812 2.390625 -16.941406 2.390625 -18.671875 C 2.390625 -19.898438 2.703125 -20.992188 3.328125 -21.953125 C 3.960938 -22.910156 4.882812 -23.660156 6.09375 -24.203125 C 7.3125 -24.742188 8.765625 -25.015625 10.453125 -25.015625 C 12.304688 -25.015625 13.875 -24.753906 15.15625 -24.234375 C 16.4375 -23.710938 17.457031 -22.925781 18.21875 -21.875 L 16.796875 -19.96875 L 16.375 -19.96875 C 15.664062 -20.832031 14.828125 -21.46875 13.859375 -21.875 C 12.898438 -22.28125 11.765625 -22.484375 10.453125 -22.484375 C 8.742188 -22.484375 7.453125 -22.148438 6.578125 -21.484375 C 5.710938 -20.828125 5.28125 -19.910156 5.28125 -18.734375 C 5.28125 -17.628906 5.597656 -16.742188 6.234375 -16.078125 C 6.878906 -15.421875 7.960938 -14.914062 9.484375 -14.5625 L 12.4375 -13.84375 C 14.832031 -13.28125 16.566406 -12.414062 17.640625 -11.25 C 18.710938 -10.09375 19.25 -8.609375 19.25 -6.796875 C 19.25 -5.398438 18.9375 -4.164062 18.3125 -3.09375 C 17.6875 -2.019531 16.738281 -1.175781 15.46875 -0.5625 C 14.195312 0.0507812 12.632812 0.359375 10.78125 0.359375 Z M 10.78125 0.359375 "/></g></g></g><g fill="#000000" fill-opacity="1"><g transform="translate(464.085575, 87.552031)"><g><path d="M 19.25 -24.65625 L 19.25 -22.203125 L 11.515625 -22.203125 L 11.515625 0 L 8.640625 0 L 8.640625 -22.203125 L 0.90625 -22.203125 L 0.90625 -24.65625 Z M 19.25 -24.65625 "/></g></g></g><g fill="#000000" fill-opacity="1"><g transform="translate(484.224641, 87.552031)"><g><path d="M 12.71875 0.359375 C 9.695312 0.359375 7.410156 -0.40625 5.859375 -1.9375 C 4.304688 -3.476562 3.53125 -5.753906 3.53125 -8.765625 L 3.53125 -24.65625 L 6.40625 -24.65625 L 6.40625 -8.8125 C 6.40625 -6.644531 6.925781 -5.019531 7.96875 -3.9375 C 9.007812 -2.863281 10.59375 -2.328125 12.71875 -2.328125 C 16.925781 -2.328125 19.03125 -4.488281 19.03125 -8.8125 L 19.03125 -24.65625 L 21.90625 -24.65625 L 21.90625 -8.765625 C 21.90625 -5.753906 21.128906 -3.476562 19.578125 -1.9375 C 18.023438 -0.40625 15.738281 0.359375 12.71875 0.359375 Z M 12.71875 0.359375 "/></g></g></g><g fill="#000000" fill-opacity="1"><g transform="translate(509.64303, 87.552031)"><g><path d="M 11.703125 -24.65625 C 14.203125 -24.65625 16.347656 -24.207031 18.140625 -23.3125 C 19.929688 -22.425781 21.3125 -21.066406 22.28125 -19.234375 C 23.257812 -17.398438 23.75 -15.097656 23.75 -12.328125 C 23.75 -9.566406 23.257812 -7.269531 22.28125 -5.4375 C 21.3125 -3.601562 19.929688 -2.238281 18.140625 -1.34375 C 16.347656 -0.445312 14.203125 0 11.703125 0 L 3.734375 0 L 3.734375 -24.65625 Z M 11.421875 -2.46875 C 13.472656 -2.46875 15.175781 -2.785156 16.53125 -3.421875 C 17.882812 -4.066406 18.90625 -5.113281 19.59375 -6.5625 C 20.289062 -8.007812 20.640625 -9.929688 20.640625 -12.328125 C 20.640625 -14.734375 20.289062 -16.660156 19.59375 -18.109375 C 18.90625 -19.554688 17.882812 -20.597656 16.53125 -21.234375 C 15.175781 -21.878906 13.472656 -22.203125 11.421875 -22.203125 L 6.625 -22.203125 L 6.625 -2.46875 Z M 11.421875 -2.46875 "/></g></g></g><g fill="#000000" fill-opacity="1"><g transform="translate(535.854176, 87.552031)"><g><path d="M 12.046875 0 L 9.15625 0 L 9.15625 -9.6875 L 0.640625 -24.65625 L 3.8125 -24.65625 L 10.453125 -13.109375 L 10.875 -13.109375 L 17.46875 -24.65625 L 20.578125 -24.65625 L 12.046875 -9.6875 Z M 12.046875 0 "/></g></g></g><path stroke-linecap="butt" transform="matrix(-0.00383151, 0.809216, -0.809799, -0.00383428, 149.600886, 22.332754)" fill="none" stroke-linejoin="miter" d="M -0.00106629 2.001016 L 130.101749 1.998056 " stroke="#d9d9d9" stroke-width="4" stroke-opacity="1" stroke-miterlimit="4"/></svg>