<svg xmlns="http://www.w3.org/2000/svg" xmlns:xlink="http://www.w3.org/1999/xlink" width="200" zoomAndPan="magnify" viewBox="0 0 150 37.5" height="50" preserveAspectRatio="xMidYMid meet" version="1.0"><defs><g/><clipPath id="a07d027cfd"><path d="M 0.988281 0 L 149.011719 0 L 149.011719 37.007812 L 0.988281 37.007812 Z M 0.988281 0 " clip-rule="nonzero"/></clipPath><clipPath id="3280664588"><path d="M 4.6875 7.257812 L 141.554688 7.257812 L 141.554688 29.980469 L 4.6875 29.980469 Z M 4.6875 7.257812 " clip-rule="nonzero"/></clipPath><clipPath id="0af4ef891a"><path d="M 8.386719 7.257812 L 137.761719 7.257812 C 138.746094 7.257812 139.6875 7.644531 140.378906 8.339844 C 141.074219 9.035156 141.464844 9.976562 141.464844 10.957031 L 141.464844 26.121094 C 141.464844 27.105469 141.074219 28.046875 140.378906 28.738281 C 139.6875 29.433594 138.746094 29.824219 137.761719 29.824219 L 8.386719 29.824219 C 7.40625 29.824219 6.464844 29.433594 5.769531 28.738281 C 5.078125 28.046875 4.6875 27.105469 4.6875 26.121094 L 4.6875 10.957031 C 4.6875 9.976562 5.078125 9.035156 5.769531 8.339844 C 6.464844 7.644531 7.40625 7.257812 8.386719 7.257812 " clip-rule="nonzero"/></clipPath><clipPath id="d2905b3494"><path d="M 4.699219 7.257812 L 141.613281 7.257812 L 141.613281 29.460938 L 4.699219 29.460938 Z M 4.699219 7.257812 " clip-rule="nonzero"/></clipPath><clipPath id="9ae314ac7b"><path d="M 8.40625 7.257812 L 137.894531 7.257812 C 138.878906 7.257812 139.820312 7.640625 140.515625 8.324219 C 141.207031 9.003906 141.597656 9.933594 141.597656 10.898438 L 141.597656 25.820312 C 141.597656 26.785156 141.207031 27.710938 140.515625 28.394531 C 139.820312 29.078125 138.878906 29.460938 137.894531 29.460938 L 8.40625 29.460938 C 7.421875 29.460938 6.480469 29.078125 5.785156 28.394531 C 5.089844 27.710938 4.699219 26.785156 4.699219 25.820312 L 4.699219 10.898438 C 4.699219 9.933594 5.089844 9.003906 5.785156 8.324219 C 6.480469 7.640625 7.421875 7.257812 8.40625 7.257812 " clip-rule="nonzero"/></clipPath><clipPath id="891968a751"><path d="M 9.816406 12.425781 L 24.605469 12.425781 L 24.605469 24.265625 L 9.816406 24.265625 Z M 9.816406 12.425781 " clip-rule="nonzero"/></clipPath></defs><g clip-path="url(#a07d027cfd)"><path fill="#ffffff" d="M 0.988281 0 L 149.011719 0 L 149.011719 125.824219 L 0.988281 125.824219 Z M 0.988281 0 " fill-opacity="1" fill-rule="nonzero"/><path fill="#ffffff" d="M 0.988281 0 L 149.011719 0 L 149.011719 37.007812 L 0.988281 37.007812 Z M 0.988281 0 " fill-opacity="1" fill-rule="nonzero"/><path fill="#ffffff" d="M 0.988281 0 L 149.011719 0 L 149.011719 37.007812 L 0.988281 37.007812 Z M 0.988281 0 " fill-opacity="1" fill-rule="nonzero"/></g><g clip-path="url(#3280664588)"><g clip-path="url(#0af4ef891a)"><path fill="#d9d9d9" d="M 4.6875 7.257812 L 141.378906 7.257812 L 141.378906 29.808594 L 4.6875 29.808594 Z M 4.6875 7.257812 " fill-opacity="1" fill-rule="nonzero"/></g></g><g clip-path="url(#d2905b3494)"><g clip-path="url(#9ae314ac7b)"><path stroke-linecap="butt" transform="matrix(0.740945, 0, 0, 0.728371, 4.700637, 7.25641)" fill="none" stroke-linejoin="miter" d="M 5.001198 0.00192509 L 179.762158 0.00192509 C 181.090697 0.00192509 182.361245 0.527498 183.299658 1.466022 C 184.232799 2.399183 184.759998 3.675575 184.759998 5.000234 L 184.759998 25.486863 C 184.759998 26.811523 184.232799 28.082552 183.299658 29.021075 C 182.361245 29.959599 181.090697 30.485172 179.762158 30.485172 L 5.001198 30.485172 C 3.672658 30.485172 2.40211 29.959599 1.463697 29.021075 C 0.525284 28.082552 -0.00191399 26.811523 -0.00191399 25.486863 L -0.00191399 5.000234 C -0.00191399 3.675575 0.525284 2.399183 1.463697 1.466022 C 2.40211 0.527498 3.672658 0.00192509 5.001198 0.00192509 " stroke="#e6e6e6" stroke-width="2" stroke-opacity="1" stroke-miterlimit="4"/></g></g><g clip-path="url(#891968a751)"><path fill="#000000" d="M 24.101562 17.484375 C 24.101562 18.882812 21.25 19.703125 18.25 19.859375 L 18.25 19.167969 C 18.25 19.027344 18.140625 18.917969 18 18.917969 L 16.421875 18.917969 C 16.285156 18.917969 16.171875 19.027344 16.171875 19.167969 L 16.171875 19.859375 C 13.171875 19.703125 10.320312 18.882812 10.320312 17.484375 L 10.320312 15.375 C 10.320312 14.949219 10.671875 14.601562 11.101562 14.601562 L 23.320312 14.601562 C 23.753906 14.601562 24.101562 14.949219 24.101562 15.375 Z M 16.675781 20.925781 L 16.675781 19.417969 L 17.746094 19.417969 L 17.746094 20.925781 Z M 24.101562 22.992188 C 24.101562 23.421875 23.753906 23.769531 23.320312 23.769531 L 11.101562 23.769531 C 10.671875 23.769531 10.320312 23.421875 10.320312 22.992188 L 10.320312 18.644531 C 10.722656 19.066406 11.359375 19.425781 12.21875 19.710938 C 13.296875 20.066406 14.671875 20.289062 16.171875 20.359375 L 16.171875 21.175781 C 16.171875 21.3125 16.285156 21.421875 16.421875 21.421875 L 18 21.421875 C 18.140625 21.421875 18.25 21.3125 18.25 21.175781 L 18.25 20.359375 C 20.753906 20.242188 23.105469 19.695312 24.101562 18.652344 Z M 14.964844 13.40625 C 14.964844 13.140625 15.183594 12.921875 15.449219 12.921875 L 18.972656 12.921875 C 19.242188 12.921875 19.460938 13.140625 19.460938 13.40625 L 19.460938 14.101562 L 14.964844 14.101562 Z M 23.320312 14.101562 L 19.964844 14.101562 L 19.964844 13.40625 C 19.964844 12.863281 19.519531 12.425781 18.972656 12.425781 L 15.449219 12.425781 C 14.902344 12.425781 14.460938 12.863281 14.460938 13.40625 L 14.460938 14.101562 L 11.101562 14.101562 C 10.394531 14.101562 9.816406 14.671875 9.816406 15.375 L 9.816406 22.992188 C 9.816406 23.695312 10.394531 24.269531 11.101562 24.269531 L 23.320312 24.269531 C 24.03125 24.269531 24.605469 23.695312 24.605469 22.992188 L 24.605469 15.375 C 24.605469 14.671875 24.03125 14.101562 23.320312 14.101562 " fill-opacity="1" fill-rule="nonzero"/></g><g fill="#000000" fill-opacity="1"><g transform="translate(37.563185, 21.463816)"><g><path d="M 0.375 -0.296875 C 0.375 -0.640625 0.410156 -0.914062 0.484375 -1.125 C 0.566406 -1.34375 0.703125 -1.546875 0.890625 -1.734375 C 1.078125 -1.921875 1.367188 -2.160156 1.765625 -2.453125 L 2.46875 -2.953125 C 2.726562 -3.140625 2.9375 -3.3125 3.09375 -3.46875 C 3.257812 -3.632812 3.390625 -3.8125 3.484375 -4 C 3.578125 -4.1875 3.625 -4.394531 3.625 -4.625 C 3.625 -5 3.523438 -5.28125 3.328125 -5.46875 C 3.128906 -5.664062 2.816406 -5.765625 2.390625 -5.765625 C 2.054688 -5.765625 1.757812 -5.6875 1.5 -5.53125 C 1.238281 -5.375 1.03125 -5.148438 0.875 -4.859375 L 0.765625 -4.84375 L 0.328125 -5.3125 C 0.535156 -5.65625 0.8125 -5.925781 1.15625 -6.125 C 1.507812 -6.320312 1.921875 -6.421875 2.390625 -6.421875 C 2.835938 -6.421875 3.207031 -6.34375 3.5 -6.1875 C 3.800781 -6.039062 4.019531 -5.832031 4.15625 -5.5625 C 4.300781 -5.289062 4.375 -4.976562 4.375 -4.625 C 4.375 -4.34375 4.316406 -4.078125 4.203125 -3.828125 C 4.085938 -3.585938 3.921875 -3.359375 3.703125 -3.140625 C 3.484375 -2.921875 3.210938 -2.691406 2.890625 -2.453125 L 2.1875 -1.9375 C 1.914062 -1.738281 1.707031 -1.570312 1.5625 -1.4375 C 1.425781 -1.300781 1.328125 -1.171875 1.265625 -1.046875 C 1.203125 -0.921875 1.171875 -0.773438 1.171875 -0.609375 L 4.375 -0.609375 L 4.375 0 L 0.375 0 Z M 0.375 -0.296875 "/></g></g><g transform="translate(42.437646, 21.463816)"><g><path d="M 3.109375 0.09375 C 2.648438 0.09375 2.234375 -0.015625 1.859375 -0.234375 C 1.492188 -0.460938 1.203125 -0.820312 0.984375 -1.3125 C 0.765625 -1.800781 0.65625 -2.421875 0.65625 -3.171875 C 0.65625 -3.921875 0.765625 -4.535156 0.984375 -5.015625 C 1.203125 -5.503906 1.492188 -5.859375 1.859375 -6.078125 C 2.234375 -6.304688 2.648438 -6.421875 3.109375 -6.421875 C 3.578125 -6.421875 3.992188 -6.304688 4.359375 -6.078125 C 4.734375 -5.859375 5.03125 -5.503906 5.25 -5.015625 C 5.46875 -4.535156 5.578125 -3.921875 5.578125 -3.171875 C 5.578125 -2.421875 5.46875 -1.800781 5.25 -1.3125 C 5.03125 -0.820312 4.734375 -0.460938 4.359375 -0.234375 C 3.992188 -0.015625 3.578125 0.09375 3.109375 0.09375 Z M 3.109375 -0.59375 C 3.660156 -0.59375 4.078125 -0.789062 4.359375 -1.1875 C 4.648438 -1.59375 4.796875 -2.253906 4.796875 -3.171875 C 4.796875 -4.085938 4.648438 -4.742188 4.359375 -5.140625 C 4.078125 -5.535156 3.660156 -5.734375 3.109375 -5.734375 C 2.742188 -5.734375 2.4375 -5.648438 2.1875 -5.484375 C 1.945312 -5.316406 1.757812 -5.039062 1.625 -4.65625 C 1.5 -4.28125 1.4375 -3.785156 1.4375 -3.171875 C 1.4375 -2.546875 1.5 -2.039062 1.625 -1.65625 C 1.757812 -1.28125 1.945312 -1.007812 2.1875 -0.84375 C 2.4375 -0.675781 2.742188 -0.59375 3.109375 -0.59375 Z M 3.109375 -0.59375 "/></g></g><g transform="translate(48.673832, 21.463816)"><g><path d="M 0.375 -0.296875 C 0.375 -0.640625 0.410156 -0.914062 0.484375 -1.125 C 0.566406 -1.34375 0.703125 -1.546875 0.890625 -1.734375 C 1.078125 -1.921875 1.367188 -2.160156 1.765625 -2.453125 L 2.46875 -2.953125 C 2.726562 -3.140625 2.9375 -3.3125 3.09375 -3.46875 C 3.257812 -3.632812 3.390625 -3.8125 3.484375 -4 C 3.578125 -4.1875 3.625 -4.394531 3.625 -4.625 C 3.625 -5 3.523438 -5.28125 3.328125 -5.46875 C 3.128906 -5.664062 2.816406 -5.765625 2.390625 -5.765625 C 2.054688 -5.765625 1.757812 -5.6875 1.5 -5.53125 C 1.238281 -5.375 1.03125 -5.148438 0.875 -4.859375 L 0.765625 -4.84375 L 0.328125 -5.3125 C 0.535156 -5.65625 0.8125 -5.925781 1.15625 -6.125 C 1.507812 -6.320312 1.921875 -6.421875 2.390625 -6.421875 C 2.835938 -6.421875 3.207031 -6.34375 3.5 -6.1875 C 3.800781 -6.039062 4.019531 -5.832031 4.15625 -5.5625 C 4.300781 -5.289062 4.375 -4.976562 4.375 -4.625 C 4.375 -4.34375 4.316406 -4.078125 4.203125 -3.828125 C 4.085938 -3.585938 3.921875 -3.359375 3.703125 -3.140625 C 3.484375 -2.921875 3.210938 -2.691406 2.890625 -2.453125 L 2.1875 -1.9375 C 1.914062 -1.738281 1.707031 -1.570312 1.5625 -1.4375 C 1.425781 -1.300781 1.328125 -1.171875 1.265625 -1.046875 C 1.203125 -0.921875 1.171875 -0.773438 1.171875 -0.609375 L 4.375 -0.609375 L 4.375 0 L 0.375 0 Z M 0.375 -0.296875 "/></g></g><g transform="translate(53.548292, 21.463816)"><g><path d="M 2.515625 0.09375 C 1.898438 0.09375 1.410156 -0.0390625 1.046875 -0.3125 C 0.679688 -0.59375 0.445312 -0.984375 0.34375 -1.484375 L 0.890625 -1.734375 L 1 -1.71875 C 1.101562 -1.332031 1.269531 -1.046875 1.5 -0.859375 C 1.726562 -0.671875 2.066406 -0.578125 2.515625 -0.578125 C 2.960938 -0.578125 3.300781 -0.679688 3.53125 -0.890625 C 3.769531 -1.097656 3.890625 -1.398438 3.890625 -1.796875 C 3.890625 -2.179688 3.769531 -2.476562 3.53125 -2.6875 C 3.289062 -2.894531 2.914062 -3 2.40625 -3 L 1.71875 -3 L 1.71875 -3.609375 L 2.328125 -3.609375 C 2.722656 -3.609375 3.035156 -3.707031 3.265625 -3.90625 C 3.503906 -4.101562 3.625 -4.382812 3.625 -4.75 C 3.625 -5.09375 3.519531 -5.347656 3.3125 -5.515625 C 3.113281 -5.691406 2.832031 -5.78125 2.46875 -5.78125 C 1.832031 -5.78125 1.378906 -5.523438 1.109375 -5.015625 L 1 -5 L 0.59375 -5.453125 C 0.757812 -5.742188 1.003906 -5.976562 1.328125 -6.15625 C 1.648438 -6.332031 2.03125 -6.421875 2.46875 -6.421875 C 2.875 -6.421875 3.21875 -6.359375 3.5 -6.234375 C 3.789062 -6.109375 4.007812 -5.925781 4.15625 -5.6875 C 4.300781 -5.457031 4.375 -5.175781 4.375 -4.84375 C 4.375 -4.53125 4.28125 -4.253906 4.09375 -4.015625 C 3.914062 -3.785156 3.679688 -3.601562 3.390625 -3.46875 L 3.390625 -3.375 C 3.804688 -3.269531 4.117188 -3.078125 4.328125 -2.796875 C 4.535156 -2.523438 4.640625 -2.191406 4.640625 -1.796875 C 4.640625 -1.191406 4.460938 -0.722656 4.109375 -0.390625 C 3.753906 -0.0664062 3.222656 0.09375 2.515625 0.09375 Z M 2.515625 0.09375 "/></g></g><g transform="translate(58.700302, 21.463816)"><g/></g><g transform="translate(60.877329, 21.463816)"><g><path d="M 2.765625 0.09375 C 2.367188 0.09375 2.007812 0.0390625 1.6875 -0.0625 C 1.375 -0.175781 1.113281 -0.320312 0.90625 -0.5 C 0.695312 -0.675781 0.539062 -0.867188 0.4375 -1.078125 L 0.84375 -1.578125 L 0.953125 -1.578125 C 1.335938 -0.910156 1.941406 -0.578125 2.765625 -0.578125 C 3.242188 -0.578125 3.597656 -0.675781 3.828125 -0.875 C 4.066406 -1.070312 4.1875 -1.351562 4.1875 -1.71875 C 4.1875 -1.925781 4.144531 -2.097656 4.0625 -2.234375 C 3.988281 -2.378906 3.863281 -2.503906 3.6875 -2.609375 C 3.507812 -2.710938 3.269531 -2.800781 2.96875 -2.875 L 2.234375 -3.0625 C 1.679688 -3.195312 1.269531 -3.40625 1 -3.6875 C 0.738281 -3.976562 0.609375 -4.347656 0.609375 -4.796875 C 0.609375 -5.109375 0.6875 -5.390625 0.84375 -5.640625 C 1.007812 -5.890625 1.25 -6.082031 1.5625 -6.21875 C 1.875 -6.351562 2.25 -6.421875 2.6875 -6.421875 C 3.164062 -6.421875 3.566406 -6.351562 3.890625 -6.21875 C 4.222656 -6.09375 4.488281 -5.894531 4.6875 -5.625 L 4.3125 -5.125 L 4.203125 -5.125 C 4.023438 -5.351562 3.8125 -5.519531 3.5625 -5.625 C 3.3125 -5.726562 3.019531 -5.78125 2.6875 -5.78125 C 2.25 -5.78125 1.914062 -5.691406 1.6875 -5.515625 C 1.46875 -5.347656 1.359375 -5.113281 1.359375 -4.8125 C 1.359375 -4.53125 1.4375 -4.300781 1.59375 -4.125 C 1.757812 -3.957031 2.039062 -3.828125 2.4375 -3.734375 L 3.1875 -3.5625 C 3.800781 -3.414062 4.242188 -3.191406 4.515625 -2.890625 C 4.796875 -2.585938 4.9375 -2.207031 4.9375 -1.75 C 4.9375 -1.382812 4.859375 -1.0625 4.703125 -0.78125 C 4.546875 -0.507812 4.300781 -0.296875 3.96875 -0.140625 C 3.644531 0.015625 3.242188 0.09375 2.765625 0.09375 Z M 2.765625 0.09375 "/></g></g><g transform="translate(66.311225, 21.463816)"><g><path d="M 3.46875 0.09375 C 2.925781 0.09375 2.441406 -0.0234375 2.015625 -0.265625 C 1.585938 -0.503906 1.25 -0.863281 1 -1.34375 C 0.75 -1.832031 0.625 -2.441406 0.625 -3.171875 C 0.625 -3.890625 0.75 -4.492188 1 -4.984375 C 1.25 -5.472656 1.585938 -5.832031 2.015625 -6.0625 C 2.441406 -6.300781 2.925781 -6.421875 3.46875 -6.421875 C 4.019531 -6.421875 4.507812 -6.300781 4.9375 -6.0625 C 5.363281 -5.832031 5.695312 -5.472656 5.9375 -4.984375 C 6.1875 -4.492188 6.3125 -3.890625 6.3125 -3.171875 C 6.3125 -2.441406 6.1875 -1.832031 5.9375 -1.34375 C 5.695312 -0.863281 5.363281 -0.503906 4.9375 -0.265625 C 4.507812 -0.0234375 4.019531 0.09375 3.46875 0.09375 Z M 3.46875 -0.59375 C 4.132812 -0.59375 4.640625 -0.796875 4.984375 -1.203125 C 5.335938 -1.617188 5.515625 -2.273438 5.515625 -3.171875 C 5.515625 -4.054688 5.335938 -4.703125 4.984375 -5.109375 C 4.640625 -5.523438 4.132812 -5.734375 3.46875 -5.734375 C 2.113281 -5.734375 1.4375 -4.878906 1.4375 -3.171875 C 1.4375 -1.453125 2.113281 -0.59375 3.46875 -0.59375 Z M 3.46875 -0.59375 "/></g></g><g transform="translate(73.267305, 21.463816)"><g><path d="M 5.703125 0 L 4.90625 0 L 4.328125 -1.734375 L 1.625 -1.734375 L 1.03125 0 L 0.25 0 L 2.46875 -6.328125 L 3.5 -6.328125 Z M 2.921875 -5.5625 L 1.828125 -2.359375 L 4.109375 -2.359375 L 3.03125 -5.5625 Z M 2.921875 -5.5625 "/></g></g><g transform="translate(79.225942, 21.463816)"><g/></g><g transform="translate(81.40297, 21.463816)"><g><path d="M 3.5 0.09375 C 2.945312 0.09375 2.453125 -0.03125 2.015625 -0.28125 C 1.585938 -0.539062 1.25 -0.914062 1 -1.40625 C 0.75 -1.894531 0.625 -2.484375 0.625 -3.171875 C 0.625 -3.847656 0.75 -4.429688 1 -4.921875 C 1.25 -5.410156 1.585938 -5.78125 2.015625 -6.03125 C 2.453125 -6.289062 2.945312 -6.421875 3.5 -6.421875 C 4.09375 -6.421875 4.582031 -6.304688 4.96875 -6.078125 C 5.363281 -5.859375 5.648438 -5.523438 5.828125 -5.078125 L 5.359375 -4.765625 L 5.25 -4.765625 C 5.070312 -5.117188 4.84375 -5.375 4.5625 -5.53125 C 4.289062 -5.6875 3.9375 -5.765625 3.5 -5.765625 C 3.101562 -5.765625 2.75 -5.671875 2.4375 -5.484375 C 2.125 -5.304688 1.878906 -5.023438 1.703125 -4.640625 C 1.523438 -4.253906 1.4375 -3.765625 1.4375 -3.171875 C 1.4375 -2.566406 1.523438 -2.070312 1.703125 -1.6875 C 1.878906 -1.300781 2.125 -1.019531 2.4375 -0.84375 C 2.75 -0.664062 3.101562 -0.578125 3.5 -0.578125 C 3.957031 -0.578125 4.332031 -0.679688 4.625 -0.890625 C 4.914062 -1.097656 5.132812 -1.429688 5.28125 -1.890625 L 5.390625 -1.890625 L 5.890625 -1.640625 C 5.734375 -1.085938 5.453125 -0.660156 5.046875 -0.359375 C 4.640625 -0.0546875 4.125 0.09375 3.5 0.09375 Z M 3.5 0.09375 "/></g></g><g transform="translate(87.621809, 21.463816)"><g><path d="M 5.703125 0 L 4.90625 0 L 4.328125 -1.734375 L 1.625 -1.734375 L 1.03125 0 L 0.25 0 L 2.46875 -6.328125 L 3.5 -6.328125 Z M 2.921875 -5.5625 L 1.828125 -2.359375 L 4.109375 -2.359375 L 3.03125 -5.5625 Z M 2.921875 -5.5625 "/></g></g><g transform="translate(93.580447, 21.463816)"><g><path d="M 2.765625 0.09375 C 2.367188 0.09375 2.007812 0.0390625 1.6875 -0.0625 C 1.375 -0.175781 1.113281 -0.320312 0.90625 -0.5 C 0.695312 -0.675781 0.539062 -0.867188 0.4375 -1.078125 L 0.84375 -1.578125 L 0.953125 -1.578125 C 1.335938 -0.910156 1.941406 -0.578125 2.765625 -0.578125 C 3.242188 -0.578125 3.597656 -0.675781 3.828125 -0.875 C 4.066406 -1.070312 4.1875 -1.351562 4.1875 -1.71875 C 4.1875 -1.925781 4.144531 -2.097656 4.0625 -2.234375 C 3.988281 -2.378906 3.863281 -2.503906 3.6875 -2.609375 C 3.507812 -2.710938 3.269531 -2.800781 2.96875 -2.875 L 2.234375 -3.0625 C 1.679688 -3.195312 1.269531 -3.40625 1 -3.6875 C 0.738281 -3.976562 0.609375 -4.347656 0.609375 -4.796875 C 0.609375 -5.109375 0.6875 -5.390625 0.84375 -5.640625 C 1.007812 -5.890625 1.25 -6.082031 1.5625 -6.21875 C 1.875 -6.351562 2.25 -6.421875 2.6875 -6.421875 C 3.164062 -6.421875 3.566406 -6.351562 3.890625 -6.21875 C 4.222656 -6.09375 4.488281 -5.894531 4.6875 -5.625 L 4.3125 -5.125 L 4.203125 -5.125 C 4.023438 -5.351562 3.8125 -5.519531 3.5625 -5.625 C 3.3125 -5.726562 3.019531 -5.78125 2.6875 -5.78125 C 2.25 -5.78125 1.914062 -5.691406 1.6875 -5.515625 C 1.46875 -5.347656 1.359375 -5.113281 1.359375 -4.8125 C 1.359375 -4.53125 1.4375 -4.300781 1.59375 -4.125 C 1.757812 -3.957031 2.039062 -3.828125 2.4375 -3.734375 L 3.1875 -3.5625 C 3.800781 -3.414062 4.242188 -3.191406 4.515625 -2.890625 C 4.796875 -2.585938 4.9375 -2.207031 4.9375 -1.75 C 4.9375 -1.382812 4.859375 -1.0625 4.703125 -0.78125 C 4.546875 -0.507812 4.300781 -0.296875 3.96875 -0.140625 C 3.644531 0.015625 3.242188 0.09375 2.765625 0.09375 Z M 2.765625 0.09375 "/></g></g><g transform="translate(99.014342, 21.463816)"><g><path d="M 1.703125 -2.984375 L 1.703125 -0.609375 L 4.9375 -0.609375 L 4.9375 0 L 0.953125 0 L 0.953125 -6.328125 L 4.859375 -6.328125 L 4.859375 -5.71875 L 1.703125 -5.71875 L 1.703125 -3.59375 L 4.484375 -3.59375 L 4.484375 -2.984375 Z M 1.703125 -2.984375 "/></g></g><g transform="translate(104.370177, 21.463816)"><g/></g><g transform="translate(106.547205, 21.463816)"><g><path d="M 2.765625 0.09375 C 2.367188 0.09375 2.007812 0.0390625 1.6875 -0.0625 C 1.375 -0.175781 1.113281 -0.320312 0.90625 -0.5 C 0.695312 -0.675781 0.539062 -0.867188 0.4375 -1.078125 L 0.84375 -1.578125 L 0.953125 -1.578125 C 1.335938 -0.910156 1.941406 -0.578125 2.765625 -0.578125 C 3.242188 -0.578125 3.597656 -0.675781 3.828125 -0.875 C 4.066406 -1.070312 4.1875 -1.351562 4.1875 -1.71875 C 4.1875 -1.925781 4.144531 -2.097656 4.0625 -2.234375 C 3.988281 -2.378906 3.863281 -2.503906 3.6875 -2.609375 C 3.507812 -2.710938 3.269531 -2.800781 2.96875 -2.875 L 2.234375 -3.0625 C 1.679688 -3.195312 1.269531 -3.40625 1 -3.6875 C 0.738281 -3.976562 0.609375 -4.347656 0.609375 -4.796875 C 0.609375 -5.109375 0.6875 -5.390625 0.84375 -5.640625 C 1.007812 -5.890625 1.25 -6.082031 1.5625 -6.21875 C 1.875 -6.351562 2.25 -6.421875 2.6875 -6.421875 C 3.164062 -6.421875 3.566406 -6.351562 3.890625 -6.21875 C 4.222656 -6.09375 4.488281 -5.894531 4.6875 -5.625 L 4.3125 -5.125 L 4.203125 -5.125 C 4.023438 -5.351562 3.8125 -5.519531 3.5625 -5.625 C 3.3125 -5.726562 3.019531 -5.78125 2.6875 -5.78125 C 2.25 -5.78125 1.914062 -5.691406 1.6875 -5.515625 C 1.46875 -5.347656 1.359375 -5.113281 1.359375 -4.8125 C 1.359375 -4.53125 1.4375 -4.300781 1.59375 -4.125 C 1.757812 -3.957031 2.039062 -3.828125 2.4375 -3.734375 L 3.1875 -3.5625 C 3.800781 -3.414062 4.242188 -3.191406 4.515625 -2.890625 C 4.796875 -2.585938 4.9375 -2.207031 4.9375 -1.75 C 4.9375 -1.382812 4.859375 -1.0625 4.703125 -0.78125 C 4.546875 -0.507812 4.300781 -0.296875 3.96875 -0.140625 C 3.644531 0.015625 3.242188 0.09375 2.765625 0.09375 Z M 2.765625 0.09375 "/></g></g><g transform="translate(111.9811, 21.463816)"><g><path d="M 4.9375 -6.328125 L 4.9375 -5.703125 L 2.953125 -5.703125 L 2.953125 0 L 2.21875 0 L 2.21875 -5.703125 L 0.234375 -5.703125 L 0.234375 -6.328125 Z M 4.9375 -6.328125 "/></g></g><g transform="translate(117.15913, 21.463816)"><g><path d="M 3.265625 0.09375 C 2.492188 0.09375 1.90625 -0.101562 1.5 -0.5 C 1.101562 -0.894531 0.90625 -1.476562 0.90625 -2.25 L 0.90625 -6.328125 L 1.640625 -6.328125 L 1.640625 -2.265625 C 1.640625 -1.710938 1.773438 -1.296875 2.046875 -1.015625 C 2.316406 -0.734375 2.722656 -0.59375 3.265625 -0.59375 C 4.347656 -0.59375 4.890625 -1.148438 4.890625 -2.265625 L 4.890625 -6.328125 L 5.625 -6.328125 L 5.625 -2.25 C 5.625 -1.476562 5.425781 -0.894531 5.03125 -0.5 C 4.632812 -0.101562 4.046875 0.09375 3.265625 0.09375 Z M 3.265625 0.09375 "/></g></g><g transform="translate(123.694549, 21.463816)"><g><path d="M 3 -6.328125 C 3.644531 -6.328125 4.195312 -6.210938 4.65625 -5.984375 C 5.125 -5.753906 5.484375 -5.40625 5.734375 -4.9375 C 5.984375 -4.46875 6.109375 -3.878906 6.109375 -3.171875 C 6.109375 -2.460938 5.984375 -1.867188 5.734375 -1.390625 C 5.484375 -0.921875 5.125 -0.570312 4.65625 -0.34375 C 4.195312 -0.113281 3.644531 0 3 0 L 0.953125 0 L 0.953125 -6.328125 Z M 2.9375 -0.625 C 3.46875 -0.625 3.90625 -0.707031 4.25 -0.875 C 4.59375 -1.039062 4.851562 -1.3125 5.03125 -1.6875 C 5.207031 -2.0625 5.296875 -2.554688 5.296875 -3.171875 C 5.296875 -3.785156 5.207031 -4.273438 5.03125 -4.640625 C 4.851562 -5.015625 4.59375 -5.285156 4.25 -5.453125 C 3.90625 -5.617188 3.46875 -5.703125 2.9375 -5.703125 L 1.703125 -5.703125 L 1.703125 -0.625 Z M 2.9375 -0.625 "/></g></g><g transform="translate(130.433794, 21.463816)"><g><path d="M 3.09375 0 L 2.359375 0 L 2.359375 -2.484375 L 0.171875 -6.328125 L 0.984375 -6.328125 L 2.6875 -3.359375 L 2.796875 -3.359375 L 4.484375 -6.328125 L 5.28125 -6.328125 L 3.09375 -2.484375 Z M 3.09375 0 "/></g></g></g><path stroke-linecap="butt" transform="matrix(-0.00398342, 0.72836, -0.74012, -0.00404774, 31.639596, 7.224258)" fill="none" stroke-linejoin="miter" d="M 0.00057949 0.500003 L 30.489643 0.499521 " stroke="#e6e6e6" stroke-width="1" stroke-opacity="1" stroke-miterlimit="4"/></svg>