<svg xmlns="http://www.w3.org/2000/svg" xmlns:xlink="http://www.w3.org/1999/xlink" width="200" zoomAndPan="magnify" viewBox="0 0 150 37.5" height="50" preserveAspectRatio="xMidYMid meet" version="1.0"><defs><g/><clipPath id="92de136743"><path d="M 0.988281 0 L 149.011719 0 L 149.011719 37.007812 L 0.988281 37.007812 Z M 0.988281 0 " clip-rule="nonzero"/></clipPath><clipPath id="66543ee0af"><path d="M 3.578125 7.238281 L 146.515625 7.238281 L 146.515625 29.964844 L 3.578125 29.964844 Z M 3.578125 7.238281 " clip-rule="nonzero"/></clipPath><clipPath id="d9fa3feebc"><path d="M 7.277344 7.238281 L 142.722656 7.238281 C 143.703125 7.238281 144.644531 7.628906 145.339844 8.324219 C 146.03125 9.015625 146.421875 9.957031 146.421875 10.941406 L 146.421875 26.105469 C 146.421875 27.085938 146.03125 28.027344 145.339844 28.722656 C 144.644531 29.417969 143.703125 29.804688 142.722656 29.804688 L 7.277344 29.804688 C 6.296875 29.804688 5.355469 29.417969 4.660156 28.722656 C 3.96875 28.027344 3.578125 27.085938 3.578125 26.105469 L 3.578125 10.941406 C 3.578125 9.957031 3.96875 9.015625 4.660156 8.324219 C 5.355469 7.628906 6.296875 7.238281 7.277344 7.238281 " clip-rule="nonzero"/></clipPath><clipPath id="ea03975e00"><path d="M 3.59375 7.238281 L 146.421875 7.238281 L 146.421875 29.441406 L 3.59375 29.441406 Z M 3.59375 7.238281 " clip-rule="nonzero"/></clipPath><clipPath id="050fff3590"><path d="M 7.292969 7.238281 L 142.707031 7.238281 C 143.6875 7.238281 144.628906 7.621094 145.324219 8.304688 C 146.019531 8.988281 146.40625 9.914062 146.40625 10.878906 L 146.40625 25.800781 C 146.40625 26.769531 146.019531 27.695312 145.324219 28.375 C 144.628906 29.058594 143.6875 29.441406 142.707031 29.441406 L 7.292969 29.441406 C 6.3125 29.441406 5.371094 29.058594 4.675781 28.375 C 3.980469 27.695312 3.59375 26.769531 3.59375 25.800781 L 3.59375 10.878906 C 3.59375 9.914062 3.980469 8.988281 4.675781 8.304688 C 5.371094 7.621094 6.3125 7.238281 7.292969 7.238281 " clip-rule="nonzero"/></clipPath><clipPath id="5af1eebf03"><path d="M 8.726562 13.128906 L 23.527344 13.128906 L 23.527344 24.230469 L 8.726562 24.230469 Z M 8.726562 13.128906 " clip-rule="nonzero"/></clipPath></defs><g clip-path="url(#92de136743)"><path fill="#ffffff" d="M 0.988281 0 L 149.011719 0 L 149.011719 37.007812 L 0.988281 37.007812 Z M 0.988281 0 " fill-opacity="1" fill-rule="nonzero"/><path fill="#ffffff" d="M 0.988281 0 L 149.011719 0 L 149.011719 37.007812 L 0.988281 37.007812 Z M 0.988281 0 " fill-opacity="1" fill-rule="nonzero"/></g><g clip-path="url(#66543ee0af)"><g clip-path="url(#d9fa3feebc)"><path fill="#d9d9d9" d="M 3.578125 7.238281 L 146.339844 7.238281 L 146.339844 29.789062 L 3.578125 29.789062 Z M 3.578125 7.238281 " fill-opacity="1" fill-rule="nonzero"/></g></g><g clip-path="url(#ea03975e00)"><g clip-path="url(#050fff3590)"><path stroke-linecap="butt" transform="matrix(0.740132, 0, 0, 0.728371, 3.592213, 7.239073)" fill="none" stroke-linejoin="miter" d="M 5.000133 -0.00108702 L 187.959597 -0.00108702 C 189.284319 -0.00108702 190.556264 0.524486 191.495708 1.46301 C 192.435153 2.401533 192.957653 3.672563 192.957653 4.997222 L 192.957653 25.483851 C 192.957653 26.813873 192.435153 28.084903 191.495708 29.018063 C 190.556264 29.956587 189.284319 30.48216 187.959597 30.48216 L 5.000133 30.48216 C 3.675411 30.48216 2.403466 29.956587 1.464022 29.018063 C 0.524577 28.084903 0.00207712 26.813873 0.00207712 25.483851 L 0.00207712 4.997222 C 0.00207712 3.672563 0.524577 2.401533 1.464022 1.46301 C 2.403466 0.524486 3.675411 -0.00108702 5.000133 -0.00108702 " stroke="#e6e6e6" stroke-width="2" stroke-opacity="1" stroke-miterlimit="4"/></g></g><path stroke-linecap="butt" transform="matrix(-0.00398342, 0.72836, -0.74012, -0.00404774, 30.529399, 7.206924)" fill="none" stroke-linejoin="miter" d="M -0.00244265 0.498908 L 30.491984 0.498397 " stroke="#e6e6e6" stroke-width="1" stroke-opacity="1" stroke-miterlimit="4"/><g fill="#000000" fill-opacity="1"><g transform="translate(36.776796, 21.483186)"><g><path d="M 4.6875 -6.328125 L 4.6875 -5.71875 L 1.703125 -5.71875 L 1.703125 -3.421875 L 4.375 -3.421875 L 4.375 -2.796875 L 1.703125 -2.796875 L 1.703125 0 L 0.953125 0 L 0.953125 -6.328125 Z M 4.6875 -6.328125 "/></g></g><g transform="translate(41.803041, 21.483186)"><g><path d="M 1.703125 0 L 0.953125 0 L 0.953125 -6.328125 L 1.703125 -6.328125 Z M 1.703125 0 "/></g></g><g transform="translate(44.470116, 21.483186)"><g><path d="M 1.6875 0 L 0.953125 0 L 0.953125 -6.328125 L 1.875 -6.328125 L 4.96875 -1.5 L 5.0625 -1.515625 L 5.0625 -6.328125 L 5.796875 -6.328125 L 5.796875 0 L 5.015625 0 L 1.796875 -5.171875 L 1.6875 -5.15625 Z M 1.6875 0 "/></g></g><g transform="translate(51.231044, 21.483186)"><g><path d="M 5.703125 0 L 4.90625 0 L 4.328125 -1.734375 L 1.625 -1.734375 L 1.03125 0 L 0.25 0 L 2.46875 -6.328125 L 3.5 -6.328125 Z M 2.921875 -5.5625 L 1.828125 -2.359375 L 4.109375 -2.359375 L 3.03125 -5.5625 Z M 2.921875 -5.5625 "/></g></g><g transform="translate(57.189682, 21.483186)"><g><path d="M 1.703125 -6.328125 L 1.703125 -0.609375 L 4.75 -0.609375 L 4.75 0 L 0.953125 0 L 0.953125 -6.328125 Z M 1.703125 -6.328125 "/></g></g><g transform="translate(62.215927, 21.483186)"><g/></g><g transform="translate(64.392954, 21.483186)"><g><path d="M 3.5 0.09375 C 2.945312 0.09375 2.453125 -0.03125 2.015625 -0.28125 C 1.585938 -0.539062 1.25 -0.914062 1 -1.40625 C 0.75 -1.894531 0.625 -2.484375 0.625 -3.171875 C 0.625 -3.847656 0.75 -4.429688 1 -4.921875 C 1.25 -5.410156 1.585938 -5.78125 2.015625 -6.03125 C 2.453125 -6.289062 2.945312 -6.421875 3.5 -6.421875 C 4.09375 -6.421875 4.582031 -6.304688 4.96875 -6.078125 C 5.363281 -5.859375 5.648438 -5.523438 5.828125 -5.078125 L 5.359375 -4.765625 L 5.25 -4.765625 C 5.070312 -5.117188 4.84375 -5.375 4.5625 -5.53125 C 4.289062 -5.6875 3.9375 -5.765625 3.5 -5.765625 C 3.101562 -5.765625 2.75 -5.671875 2.4375 -5.484375 C 2.125 -5.304688 1.878906 -5.023438 1.703125 -4.640625 C 1.523438 -4.253906 1.4375 -3.765625 1.4375 -3.171875 C 1.4375 -2.566406 1.523438 -2.070312 1.703125 -1.6875 C 1.878906 -1.300781 2.125 -1.019531 2.4375 -0.84375 C 2.75 -0.664062 3.101562 -0.578125 3.5 -0.578125 C 3.957031 -0.578125 4.332031 -0.679688 4.625 -0.890625 C 4.914062 -1.097656 5.132812 -1.429688 5.28125 -1.890625 L 5.390625 -1.890625 L 5.890625 -1.640625 C 5.734375 -1.085938 5.453125 -0.660156 5.046875 -0.359375 C 4.640625 -0.0546875 4.125 0.09375 3.5 0.09375 Z M 3.5 0.09375 "/></g></g><g transform="translate(70.611794, 21.483186)"><g><path d="M 3.46875 0.09375 C 2.925781 0.09375 2.441406 -0.0234375 2.015625 -0.265625 C 1.585938 -0.503906 1.25 -0.863281 1 -1.34375 C 0.75 -1.832031 0.625 -2.441406 0.625 -3.171875 C 0.625 -3.890625 0.75 -4.492188 1 -4.984375 C 1.25 -5.472656 1.585938 -5.832031 2.015625 -6.0625 C 2.441406 -6.300781 2.925781 -6.421875 3.46875 -6.421875 C 4.019531 -6.421875 4.507812 -6.300781 4.9375 -6.0625 C 5.363281 -5.832031 5.695312 -5.472656 5.9375 -4.984375 C 6.1875 -4.492188 6.3125 -3.890625 6.3125 -3.171875 C 6.3125 -2.441406 6.1875 -1.832031 5.9375 -1.34375 C 5.695312 -0.863281 5.363281 -0.503906 4.9375 -0.265625 C 4.507812 -0.0234375 4.019531 0.09375 3.46875 0.09375 Z M 3.46875 -0.59375 C 4.132812 -0.59375 4.640625 -0.796875 4.984375 -1.203125 C 5.335938 -1.617188 5.515625 -2.273438 5.515625 -3.171875 C 5.515625 -4.054688 5.335938 -4.703125 4.984375 -5.109375 C 4.640625 -5.523438 4.132812 -5.734375 3.46875 -5.734375 C 2.113281 -5.734375 1.4375 -4.878906 1.4375 -3.171875 C 1.4375 -1.453125 2.113281 -0.59375 3.46875 -0.59375 Z M 3.46875 -0.59375 "/></g></g><g transform="translate(77.567874, 21.483186)"><g><path d="M 1.640625 0 L 0.953125 0 L 0.953125 -6.328125 L 2.0625 -6.328125 L 3.984375 -0.96875 L 4.078125 -0.96875 L 6 -6.328125 L 7.0625 -6.328125 L 7.0625 0 L 6.359375 0 L 6.359375 -5.171875 L 6.25 -5.1875 L 4.375 0 L 3.625 0 L 1.75 -5.1875 L 1.640625 -5.171875 Z M 1.640625 0 "/></g></g><g transform="translate(85.595121, 21.483186)"><g><path d="M 0.953125 0 L 0.953125 -6.328125 L 3.359375 -6.328125 C 3.742188 -6.328125 4.070312 -6.265625 4.34375 -6.140625 C 4.625 -6.023438 4.832031 -5.851562 4.96875 -5.625 C 5.101562 -5.394531 5.171875 -5.117188 5.171875 -4.796875 C 5.171875 -4.523438 5.09375 -4.273438 4.9375 -4.046875 C 4.789062 -3.828125 4.582031 -3.65625 4.3125 -3.53125 L 4.3125 -3.4375 C 4.726562 -3.332031 5.046875 -3.144531 5.265625 -2.875 C 5.484375 -2.601562 5.59375 -2.257812 5.59375 -1.84375 C 5.59375 -1.25 5.421875 -0.789062 5.078125 -0.46875 C 4.734375 -0.15625 4.222656 0 3.546875 0 Z M 3.328125 -3.671875 C 3.671875 -3.671875 3.9375 -3.757812 4.125 -3.9375 C 4.320312 -4.125 4.421875 -4.378906 4.421875 -4.703125 C 4.421875 -5.046875 4.328125 -5.300781 4.140625 -5.46875 C 3.960938 -5.632812 3.691406 -5.71875 3.328125 -5.71875 L 1.703125 -5.71875 L 1.703125 -3.671875 Z M 3.484375 -0.609375 C 4.390625 -0.609375 4.84375 -1.019531 4.84375 -1.84375 C 4.84375 -2.65625 4.390625 -3.0625 3.484375 -3.0625 L 1.703125 -3.0625 L 1.703125 -0.609375 Z M 3.484375 -0.609375 "/></g></g><g transform="translate(91.69687, 21.483186)"><g><path d="M 1.703125 0 L 0.953125 0 L 0.953125 -6.328125 L 1.703125 -6.328125 Z M 1.703125 0 "/></g></g><g transform="translate(94.363945, 21.483186)"><g><path d="M 1.6875 0 L 0.953125 0 L 0.953125 -6.328125 L 1.875 -6.328125 L 4.96875 -1.5 L 5.0625 -1.515625 L 5.0625 -6.328125 L 5.796875 -6.328125 L 5.796875 0 L 5.015625 0 L 1.796875 -5.171875 L 1.6875 -5.15625 Z M 1.6875 0 "/></g></g><g transform="translate(101.124873, 21.483186)"><g><path d="M 1.703125 -2.984375 L 1.703125 -0.609375 L 4.9375 -0.609375 L 4.9375 0 L 0.953125 0 L 0.953125 -6.328125 L 4.859375 -6.328125 L 4.859375 -5.71875 L 1.703125 -5.71875 L 1.703125 -3.59375 L 4.484375 -3.59375 L 4.484375 -2.984375 Z M 1.703125 -2.984375 "/></g></g><g transform="translate(106.480708, 21.483186)"><g><path d="M 3 -6.328125 C 3.644531 -6.328125 4.195312 -6.210938 4.65625 -5.984375 C 5.125 -5.753906 5.484375 -5.40625 5.734375 -4.9375 C 5.984375 -4.46875 6.109375 -3.878906 6.109375 -3.171875 C 6.109375 -2.460938 5.984375 -1.867188 5.734375 -1.390625 C 5.484375 -0.921875 5.125 -0.570312 4.65625 -0.34375 C 4.195312 -0.113281 3.644531 0 3 0 L 0.953125 0 L 0.953125 -6.328125 Z M 2.9375 -0.625 C 3.46875 -0.625 3.90625 -0.707031 4.25 -0.875 C 4.59375 -1.039062 4.851562 -1.3125 5.03125 -1.6875 C 5.207031 -2.0625 5.296875 -2.554688 5.296875 -3.171875 C 5.296875 -3.785156 5.207031 -4.273438 5.03125 -4.640625 C 4.851562 -5.015625 4.59375 -5.285156 4.25 -5.453125 C 3.90625 -5.617188 3.46875 -5.703125 2.9375 -5.703125 L 1.703125 -5.703125 L 1.703125 -0.625 Z M 2.9375 -0.625 "/></g></g><g transform="translate(113.219953, 21.483186)"><g/></g><g transform="translate(115.39698, 21.483186)"><g><path d="M 3.5 0.09375 C 2.945312 0.09375 2.453125 -0.03125 2.015625 -0.28125 C 1.585938 -0.539062 1.25 -0.914062 1 -1.40625 C 0.75 -1.894531 0.625 -2.484375 0.625 -3.171875 C 0.625 -3.847656 0.75 -4.429688 1 -4.921875 C 1.25 -5.410156 1.585938 -5.78125 2.015625 -6.03125 C 2.453125 -6.289062 2.945312 -6.421875 3.5 -6.421875 C 4.09375 -6.421875 4.582031 -6.304688 4.96875 -6.078125 C 5.363281 -5.859375 5.648438 -5.523438 5.828125 -5.078125 L 5.359375 -4.765625 L 5.25 -4.765625 C 5.070312 -5.117188 4.84375 -5.375 4.5625 -5.53125 C 4.289062 -5.6875 3.9375 -5.765625 3.5 -5.765625 C 3.101562 -5.765625 2.75 -5.671875 2.4375 -5.484375 C 2.125 -5.304688 1.878906 -5.023438 1.703125 -4.640625 C 1.523438 -4.253906 1.4375 -3.765625 1.4375 -3.171875 C 1.4375 -2.566406 1.523438 -2.070312 1.703125 -1.6875 C 1.878906 -1.300781 2.125 -1.019531 2.4375 -0.84375 C 2.75 -0.664062 3.101562 -0.578125 3.5 -0.578125 C 3.957031 -0.578125 4.332031 -0.679688 4.625 -0.890625 C 4.914062 -1.097656 5.132812 -1.429688 5.28125 -1.890625 L 5.390625 -1.890625 L 5.890625 -1.640625 C 5.734375 -1.085938 5.453125 -0.660156 5.046875 -0.359375 C 4.640625 -0.0546875 4.125 0.09375 3.5 0.09375 Z M 3.5 0.09375 "/></g></g><g transform="translate(121.61582, 21.483186)"><g><path d="M 3.46875 0.09375 C 2.925781 0.09375 2.441406 -0.0234375 2.015625 -0.265625 C 1.585938 -0.503906 1.25 -0.863281 1 -1.34375 C 0.75 -1.832031 0.625 -2.441406 0.625 -3.171875 C 0.625 -3.890625 0.75 -4.492188 1 -4.984375 C 1.25 -5.472656 1.585938 -5.832031 2.015625 -6.0625 C 2.441406 -6.300781 2.925781 -6.421875 3.46875 -6.421875 C 4.019531 -6.421875 4.507812 -6.300781 4.9375 -6.0625 C 5.363281 -5.832031 5.695312 -5.472656 5.9375 -4.984375 C 6.1875 -4.492188 6.3125 -3.890625 6.3125 -3.171875 C 6.3125 -2.441406 6.1875 -1.832031 5.9375 -1.34375 C 5.695312 -0.863281 5.363281 -0.503906 4.9375 -0.265625 C 4.507812 -0.0234375 4.019531 0.09375 3.46875 0.09375 Z M 3.46875 -0.59375 C 4.132812 -0.59375 4.640625 -0.796875 4.984375 -1.203125 C 5.335938 -1.617188 5.515625 -2.273438 5.515625 -3.171875 C 5.515625 -4.054688 5.335938 -4.703125 4.984375 -5.109375 C 4.640625 -5.523438 4.132812 -5.734375 3.46875 -5.734375 C 2.113281 -5.734375 1.4375 -4.878906 1.4375 -3.171875 C 1.4375 -1.453125 2.113281 -0.59375 3.46875 -0.59375 Z M 3.46875 -0.59375 "/></g></g><g transform="translate(128.5719, 21.483186)"><g><path d="M 3 -6.328125 C 3.644531 -6.328125 4.195312 -6.210938 4.65625 -5.984375 C 5.125 -5.753906 5.484375 -5.40625 5.734375 -4.9375 C 5.984375 -4.46875 6.109375 -3.878906 6.109375 -3.171875 C 6.109375 -2.460938 5.984375 -1.867188 5.734375 -1.390625 C 5.484375 -0.921875 5.125 -0.570312 4.65625 -0.34375 C 4.195312 -0.113281 3.644531 0 3 0 L 0.953125 0 L 0.953125 -6.328125 Z M 2.9375 -0.625 C 3.46875 -0.625 3.90625 -0.707031 4.25 -0.875 C 4.59375 -1.039062 4.851562 -1.3125 5.03125 -1.6875 C 5.207031 -2.0625 5.296875 -2.554688 5.296875 -3.171875 C 5.296875 -3.785156 5.207031 -4.273438 5.03125 -4.640625 C 4.851562 -5.015625 4.59375 -5.285156 4.25 -5.453125 C 3.90625 -5.617188 3.46875 -5.703125 2.9375 -5.703125 L 1.703125 -5.703125 L 1.703125 -0.625 Z M 2.9375 -0.625 "/></g></g><g transform="translate(135.311145, 21.483186)"><g><path d="M 1.703125 -2.984375 L 1.703125 -0.609375 L 4.9375 -0.609375 L 4.9375 0 L 0.953125 0 L 0.953125 -6.328125 L 4.859375 -6.328125 L 4.859375 -5.71875 L 1.703125 -5.71875 L 1.703125 -3.59375 L 4.484375 -3.59375 L 4.484375 -2.984375 Z M 1.703125 -2.984375 "/></g></g></g><path fill="#231f20" d="M 17.203125 21.660156 C 17.246094 21.699219 17.296875 21.71875 17.355469 21.714844 C 17.4375 21.714844 17.503906 21.683594 17.550781 21.617188 L 19.152344 19.515625 C 19.234375 19.40625 19.234375 19.296875 19.152344 19.1875 L 17.550781 17.082031 C 17.503906 17.019531 17.4375 16.984375 17.355469 16.984375 C 17.296875 16.984375 17.246094 17.003906 17.203125 17.042969 C 17.144531 17.085938 17.113281 17.144531 17.105469 17.21875 C 17.097656 17.289062 17.113281 17.355469 17.160156 17.410156 L 18.632812 19.351562 L 17.160156 21.289062 C 17.117188 21.347656 17.097656 21.410156 17.105469 21.484375 C 17.113281 21.554688 17.144531 21.613281 17.203125 21.660156 Z M 17.203125 21.660156 " fill-opacity="1" fill-rule="nonzero"/><g clip-path="url(#5af1eebf03)"><path fill="#231f20" d="M 23.25 14.457031 L 20.761719 14.457031 L 20.761719 13.390625 C 20.765625 13.316406 20.738281 13.253906 20.691406 13.203125 C 20.640625 13.152344 20.582031 13.128906 20.511719 13.128906 L 9.007812 13.128906 C 8.9375 13.128906 8.878906 13.152344 8.828125 13.203125 C 8.777344 13.253906 8.753906 13.316406 8.753906 13.390625 L 8.753906 22.652344 C 8.753906 22.722656 8.777344 22.785156 8.828125 22.835938 C 8.878906 22.890625 8.9375 22.914062 9.007812 22.914062 L 11.496094 22.914062 L 11.496094 23.984375 C 11.496094 24.054688 11.519531 24.117188 11.566406 24.167969 C 11.617188 24.21875 11.671875 24.242188 11.742188 24.242188 L 23.25 24.242188 C 23.320312 24.242188 23.378906 24.21875 23.425781 24.167969 C 23.476562 24.117188 23.5 24.054688 23.503906 23.984375 L 23.503906 14.71875 C 23.5 14.546875 23.414062 14.460938 23.25 14.457031 Z M 20.265625 15.84375 L 11.605469 15.84375 C 11.535156 15.84375 11.476562 15.867188 11.425781 15.917969 C 11.378906 15.96875 11.351562 16.03125 11.351562 16.105469 C 11.351562 16.175781 11.378906 16.238281 11.425781 16.289062 C 11.476562 16.34375 11.535156 16.367188 11.605469 16.367188 L 20.265625 16.367188 L 20.265625 22.386719 L 9.257812 22.386719 L 9.257812 13.652344 L 20.265625 13.652344 Z M 20.761719 22.652344 L 20.761719 17.695312 L 23 17.695312 L 23 23.722656 L 11.992188 23.722656 L 11.992188 22.925781 L 20.511719 22.925781 C 20.582031 22.925781 20.644531 22.898438 20.695312 22.84375 C 20.746094 22.789062 20.769531 22.726562 20.761719 22.652344 Z M 22.015625 16.105469 C 22.015625 16.03125 21.992188 15.972656 21.945312 15.921875 C 21.894531 15.871094 21.835938 15.84375 21.769531 15.84375 L 20.761719 15.84375 L 20.761719 14.984375 L 23 14.984375 L 23 17.175781 L 20.761719 17.175781 L 20.761719 16.378906 L 21.769531 16.378906 C 21.839844 16.378906 21.902344 16.351562 21.949219 16.296875 C 22 16.242188 22.019531 16.179688 22.015625 16.105469 Z M 22.015625 16.105469 " fill-opacity="1" fill-rule="nonzero"/></g><path fill="#231f20" d="M 18.386719 14.984375 L 19.203125 14.984375 C 19.269531 14.984375 19.328125 14.957031 19.378906 14.90625 C 19.429688 14.855469 19.453125 14.792969 19.453125 14.71875 C 19.453125 14.648438 19.429688 14.585938 19.378906 14.535156 C 19.328125 14.484375 19.269531 14.457031 19.203125 14.457031 L 18.386719 14.457031 C 18.316406 14.457031 18.257812 14.484375 18.207031 14.535156 C 18.160156 14.585938 18.132812 14.648438 18.132812 14.71875 C 18.132812 14.792969 18.160156 14.855469 18.207031 14.90625 C 18.257812 14.957031 18.316406 14.984375 18.386719 14.984375 Z M 18.386719 14.984375 " fill-opacity="1" fill-rule="nonzero"/><path fill="#231f20" d="M 13.386719 14.984375 L 15.53125 14.984375 C 15.601562 14.984375 15.660156 14.957031 15.710938 14.90625 C 15.757812 14.855469 15.785156 14.792969 15.785156 14.71875 C 15.785156 14.648438 15.757812 14.585938 15.710938 14.535156 C 15.660156 14.484375 15.601562 14.457031 15.53125 14.457031 L 13.386719 14.457031 C 13.320312 14.457031 13.257812 14.484375 13.210938 14.535156 C 13.160156 14.585938 13.136719 14.648438 13.136719 14.71875 C 13.136719 14.792969 13.160156 14.855469 13.210938 14.90625 C 13.257812 14.957031 13.320312 14.984375 13.386719 14.984375 Z M 13.386719 14.984375 " fill-opacity="1" fill-rule="nonzero"/><path fill="#231f20" d="M 16.753906 14.984375 L 17.328125 14.984375 C 17.394531 14.984375 17.457031 14.957031 17.503906 14.90625 C 17.554688 14.855469 17.578125 14.792969 17.578125 14.71875 C 17.578125 14.648438 17.554688 14.585938 17.503906 14.535156 C 17.457031 14.484375 17.394531 14.457031 17.328125 14.457031 L 16.753906 14.457031 C 16.6875 14.457031 16.625 14.484375 16.578125 14.535156 C 16.527344 14.585938 16.503906 14.648438 16.503906 14.71875 C 16.503906 14.792969 16.527344 14.855469 16.578125 14.90625 C 16.625 14.957031 16.6875 14.984375 16.753906 14.984375 Z M 16.753906 14.984375 " fill-opacity="1" fill-rule="nonzero"/><path fill="#231f20" d="M 14.144531 21.617188 C 14.195312 21.683594 14.257812 21.714844 14.339844 21.714844 C 14.398438 21.71875 14.449219 21.699219 14.496094 21.660156 C 14.550781 21.613281 14.582031 21.554688 14.589844 21.484375 C 14.597656 21.410156 14.582031 21.347656 14.539062 21.289062 L 13.0625 19.351562 L 14.539062 17.410156 C 14.582031 17.355469 14.601562 17.289062 14.59375 17.21875 C 14.585938 17.144531 14.550781 17.085938 14.496094 17.042969 C 14.453125 17.003906 14.398438 16.984375 14.339844 16.984375 C 14.261719 16.984375 14.195312 17.019531 14.144531 17.082031 L 12.566406 19.1875 C 12.480469 19.296875 12.480469 19.40625 12.566406 19.515625 Z M 14.144531 21.617188 " fill-opacity="1" fill-rule="nonzero"/></svg>