<svg xmlns="http://www.w3.org/2000/svg" xmlns:xlink="http://www.w3.org/1999/xlink" width="200" zoomAndPan="magnify" viewBox="0 0 150 37.5" height="50" preserveAspectRatio="xMidYMid meet" version="1.0"><defs><g/><clipPath id="ab90579592"><path d="M 0.988281 0 L 149.011719 0 L 149.011719 37.007812 L 0.988281 37.007812 Z M 0.988281 0 " clip-rule="nonzero"/></clipPath><clipPath id="3c177c49e6"><path d="M 4.6875 7.257812 L 139 7.257812 L 139 29.980469 L 4.6875 29.980469 Z M 4.6875 7.257812 " clip-rule="nonzero"/></clipPath><clipPath id="bfd16d306e"><path d="M 8.386719 7.257812 L 135.300781 7.257812 C 136.285156 7.257812 137.226562 7.644531 137.917969 8.339844 C 138.613281 9.035156 139.003906 9.976562 139.003906 10.957031 L 139.003906 26.121094 C 139.003906 27.105469 138.613281 28.046875 137.917969 28.738281 C 137.226562 29.433594 136.285156 29.824219 135.300781 29.824219 L 8.386719 29.824219 C 7.40625 29.824219 6.464844 29.433594 5.769531 28.738281 C 5.078125 28.046875 4.6875 27.105469 4.6875 26.121094 L 4.6875 10.957031 C 4.6875 9.976562 5.078125 9.035156 5.769531 8.339844 C 6.464844 7.644531 7.40625 7.257812 8.386719 7.257812 " clip-rule="nonzero"/></clipPath><clipPath id="16736ee5f6"><path d="M 4.699219 7.257812 L 138.652344 7.257812 L 138.652344 29.460938 L 4.699219 29.460938 Z M 4.699219 7.257812 " clip-rule="nonzero"/></clipPath><clipPath id="d07f3b1855"><path d="M 8.390625 7.257812 L 134.949219 7.257812 C 135.929688 7.257812 136.867188 7.640625 137.558594 8.324219 C 138.25 9.003906 138.640625 9.933594 138.640625 10.898438 L 138.640625 25.820312 C 138.640625 26.785156 138.25 27.710938 137.558594 28.394531 C 136.867188 29.078125 135.929688 29.460938 134.949219 29.460938 L 8.390625 29.460938 C 7.410156 29.460938 6.472656 29.078125 5.78125 28.394531 C 5.089844 27.710938 4.699219 26.785156 4.699219 25.820312 L 4.699219 10.898438 C 4.699219 9.933594 5.089844 9.003906 5.78125 8.324219 C 6.472656 7.640625 7.410156 7.257812 8.390625 7.257812 " clip-rule="nonzero"/></clipPath><clipPath id="b7859b8ce6"><path d="M 10.34375 10.488281 L 25.148438 10.488281 L 25.148438 26.773438 L 10.34375 26.773438 Z M 10.34375 10.488281 " clip-rule="nonzero"/></clipPath></defs><g clip-path="url(#ab90579592)"><path fill="#ffffff" d="M 0.988281 0 L 149.011719 0 L 149.011719 37.007812 L 0.988281 37.007812 Z M 0.988281 0 " fill-opacity="1" fill-rule="nonzero"/><path fill="#ffffff" d="M 0.988281 0 L 149.011719 0 L 149.011719 37.007812 L 0.988281 37.007812 Z M 0.988281 0 " fill-opacity="1" fill-rule="nonzero"/></g><g clip-path="url(#3c177c49e6)"><g clip-path="url(#bfd16d306e)"><path fill="#d9d9d9" d="M 4.6875 7.257812 L 138.953125 7.257812 L 138.953125 29.808594 L 4.6875 29.808594 Z M 4.6875 7.257812 " fill-opacity="1" fill-rule="nonzero"/></g></g><g clip-path="url(#16736ee5f6)"><g clip-path="url(#d07f3b1855)"><path stroke-linecap="butt" transform="matrix(0.73822, 0, 0, 0.728371, 4.699251, 7.256409)" fill="none" stroke-linejoin="miter" d="M 5.000373 0.00192705 L 176.437938 0.00192705 C 177.766091 0.00192705 179.036038 0.5275 179.972624 1.466024 C 180.90921 2.399185 181.438355 3.675577 181.438355 5.000236 L 181.438355 25.486865 C 181.438355 26.811524 180.90921 28.082554 179.972624 29.021077 C 179.036038 29.959601 177.766091 30.485174 176.437938 30.485174 L 5.000373 30.485174 C 3.67222 30.485174 2.402273 29.959601 1.465687 29.021077 C 0.529101 28.082554 -0.0000436584 26.811524 -0.0000436584 25.486865 L -0.0000436584 5.000236 C -0.0000436584 3.675577 0.529101 2.399185 1.465687 1.466024 C 2.402273 0.5275 3.67222 0.00192705 5.000373 0.00192705 " stroke="#e6e6e6" stroke-width="2" stroke-opacity="1" stroke-miterlimit="4"/></g></g><path stroke-linecap="butt" transform="matrix(-0.00398342, 0.72836, -0.74012, -0.00404774, 31.639596, 7.224256)" fill="none" stroke-linejoin="miter" d="M 0.000582416 0.500003 L 30.489646 0.499521 " stroke="#e6e6e6" stroke-width="1" stroke-opacity="1" stroke-miterlimit="4"/><g clip-path="url(#b7859b8ce6)"><path fill="#000000" d="M 22.980469 25.621094 L 22.394531 25.476562 L 22.394531 12.414062 C 22.394531 12.261719 22.273438 12.140625 22.121094 12.140625 L 13.421875 12.140625 L 13.597656 11.082031 L 24.550781 12.113281 Z M 21.847656 26.230469 L 10.910156 26.230469 L 10.910156 12.683594 L 21.847656 12.683594 Z M 13.398438 10.515625 C 13.253906 10.5 13.125 10.601562 13.101562 10.742188 L 12.867188 12.140625 L 10.636719 12.140625 C 10.488281 12.140625 10.363281 12.261719 10.363281 12.414062 L 10.363281 26.5 C 10.363281 26.648438 10.488281 26.773438 10.636719 26.773438 L 22.121094 26.773438 C 22.273438 26.773438 22.394531 26.648438 22.394531 26.5 L 22.394531 26.035156 L 23.148438 26.222656 C 23.171875 26.226562 23.191406 26.230469 23.214844 26.230469 C 23.269531 26.230469 23.324219 26.210938 23.371094 26.183594 C 23.433594 26.136719 23.476562 26.066406 23.484375 25.988281 L 25.125 11.902344 C 25.136719 11.828125 25.113281 11.757812 25.066406 11.699219 C 25.023438 11.644531 24.953125 11.609375 24.878906 11.601562 L 13.398438 10.515625 " fill-opacity="1" fill-rule="nonzero"/></g><path fill="#000000" d="M 12.003906 14.851562 L 11.457031 14.851562 L 11.457031 19.1875 L 21.300781 19.1875 L 21.300781 18.644531 L 12.003906 18.644531 L 12.003906 14.851562 " fill-opacity="1" fill-rule="nonzero"/><path fill="#000000" d="M 18.039062 16.433594 L 16.34375 15.316406 L 14.738281 16.90625 L 13.917969 16.09375 L 12.359375 17.640625 L 12.746094 18.023438 L 13.917969 16.859375 L 14.738281 17.671875 L 16.414062 16.011719 L 18 17.058594 L 21.421875 15.363281 L 21.179688 14.878906 L 18.039062 16.433594 " fill-opacity="1" fill-rule="nonzero"/><path fill="#000000" d="M 12.003906 14.308594 C 12.304688 14.308594 12.550781 14.066406 12.550781 13.765625 C 12.550781 13.46875 12.304688 13.226562 12.003906 13.226562 C 11.703125 13.226562 11.457031 13.46875 11.457031 13.765625 C 11.457031 14.066406 11.703125 14.308594 12.003906 14.308594 " fill-opacity="1" fill-rule="nonzero"/><path fill="#000000" d="M 20.753906 14.308594 C 21.054688 14.308594 21.300781 14.066406 21.300781 13.765625 C 21.300781 13.46875 21.054688 13.226562 20.753906 13.226562 C 20.453125 13.226562 20.207031 13.46875 20.207031 13.765625 C 20.207031 14.066406 20.453125 14.308594 20.753906 14.308594 " fill-opacity="1" fill-rule="nonzero"/><path fill="#000000" d="M 12.003906 24.605469 C 11.703125 24.605469 11.457031 24.847656 11.457031 25.144531 C 11.457031 25.445312 11.703125 25.6875 12.003906 25.6875 C 12.304688 25.6875 12.550781 25.445312 12.550781 25.144531 C 12.550781 24.847656 12.304688 24.605469 12.003906 24.605469 " fill-opacity="1" fill-rule="nonzero"/><path fill="#000000" d="M 20.753906 24.605469 C 20.453125 24.605469 20.207031 24.847656 20.207031 25.144531 C 20.207031 25.445312 20.453125 25.6875 20.753906 25.6875 C 21.054688 25.6875 21.300781 25.445312 21.300781 25.144531 C 21.300781 24.847656 21.054688 24.605469 20.753906 24.605469 " fill-opacity="1" fill-rule="nonzero"/><path fill="#000000" d="M 11.457031 20.269531 L 14.738281 20.269531 L 14.738281 19.726562 L 11.457031 19.726562 L 11.457031 20.269531 " fill-opacity="1" fill-rule="nonzero"/><path fill="#000000" d="M 16.378906 25.6875 L 19.660156 25.6875 L 19.660156 25.144531 L 16.378906 25.144531 L 16.378906 25.6875 " fill-opacity="1" fill-rule="nonzero"/><path fill="#000000" d="M 11.457031 21.351562 L 14.738281 21.351562 L 14.738281 20.8125 L 11.457031 20.8125 L 11.457031 21.351562 " fill-opacity="1" fill-rule="nonzero"/><path fill="#000000" d="M 11.457031 22.4375 L 14.738281 22.4375 L 14.738281 21.894531 L 11.457031 21.894531 L 11.457031 22.4375 " fill-opacity="1" fill-rule="nonzero"/><path fill="#000000" d="M 12.003906 22.980469 L 11.457031 22.980469 L 11.457031 23.519531 L 12.003906 23.519531 L 12.003906 22.980469 " fill-opacity="1" fill-rule="nonzero"/><path fill="#000000" d="M 12.550781 23.519531 L 13.097656 23.519531 L 13.097656 22.980469 L 12.550781 22.980469 L 12.550781 23.519531 " fill-opacity="1" fill-rule="nonzero"/><path fill="#000000" d="M 14.191406 22.980469 L 13.644531 22.980469 L 13.644531 23.519531 L 14.191406 23.519531 L 14.191406 22.980469 " fill-opacity="1" fill-rule="nonzero"/><path fill="#000000" d="M 15.832031 22.164062 C 15.832031 21.210938 16.546875 20.421875 17.472656 20.289062 L 17.472656 22.4375 L 19.640625 22.4375 C 19.507812 23.355469 18.707031 24.0625 17.746094 24.0625 C 16.691406 24.0625 15.832031 23.210938 15.832031 22.164062 Z M 20.207031 22.164062 L 20.207031 21.894531 L 18.019531 21.894531 L 18.019531 19.726562 L 17.746094 19.726562 C 16.390625 19.726562 15.285156 20.820312 15.285156 22.164062 C 15.285156 23.511719 16.390625 24.605469 17.746094 24.605469 C 19.105469 24.605469 20.207031 23.511719 20.207031 22.164062 " fill-opacity="1" fill-rule="nonzero"/><path fill="#000000" d="M 18.3125 21.253906 L 18.820312 21.453125 L 19.296875 20.269531 L 21.300781 20.269531 L 21.300781 19.726562 L 18.929688 19.726562 L 18.3125 21.253906 " fill-opacity="1" fill-rule="nonzero"/><path fill="#000000" d="M 15.285156 25.6875 L 15.832031 25.6875 L 15.832031 25.144531 L 15.285156 25.144531 L 15.285156 25.6875 " fill-opacity="1" fill-rule="nonzero"/><path fill="#000000" d="M 14.191406 25.6875 L 14.738281 25.6875 L 14.738281 25.144531 L 14.191406 25.144531 L 14.191406 25.6875 " fill-opacity="1" fill-rule="nonzero"/><g fill="#000000" fill-opacity="1"><g transform="translate(37.563185, 21.463816)"><g><path d="M 3.5 0.09375 C 2.945312 0.09375 2.453125 -0.03125 2.015625 -0.28125 C 1.585938 -0.539062 1.25 -0.914062 1 -1.40625 C 0.75 -1.894531 0.625 -2.484375 0.625 -3.171875 C 0.625 -3.847656 0.75 -4.429688 1 -4.921875 C 1.25 -5.410156 1.585938 -5.78125 2.015625 -6.03125 C 2.453125 -6.289062 2.945312 -6.421875 3.5 -6.421875 C 4.09375 -6.421875 4.582031 -6.304688 4.96875 -6.078125 C 5.363281 -5.859375 5.648438 -5.523438 5.828125 -5.078125 L 5.359375 -4.765625 L 5.25 -4.765625 C 5.070312 -5.117188 4.84375 -5.375 4.5625 -5.53125 C 4.289062 -5.6875 3.9375 -5.765625 3.5 -5.765625 C 3.101562 -5.765625 2.75 -5.671875 2.4375 -5.484375 C 2.125 -5.304688 1.878906 -5.023438 1.703125 -4.640625 C 1.523438 -4.253906 1.4375 -3.765625 1.4375 -3.171875 C 1.4375 -2.566406 1.523438 -2.070312 1.703125 -1.6875 C 1.878906 -1.300781 2.125 -1.019531 2.4375 -0.84375 C 2.75 -0.664062 3.101562 -0.578125 3.5 -0.578125 C 3.957031 -0.578125 4.332031 -0.679688 4.625 -0.890625 C 4.914062 -1.097656 5.132812 -1.429688 5.28125 -1.890625 L 5.390625 -1.890625 L 5.890625 -1.640625 C 5.734375 -1.085938 5.453125 -0.660156 5.046875 -0.359375 C 4.640625 -0.0546875 4.125 0.09375 3.5 0.09375 Z M 3.5 0.09375 "/></g></g><g transform="translate(43.782025, 21.463816)"><g><path d="M 3.46875 0.09375 C 2.925781 0.09375 2.441406 -0.0234375 2.015625 -0.265625 C 1.585938 -0.503906 1.25 -0.863281 1 -1.34375 C 0.75 -1.832031 0.625 -2.441406 0.625 -3.171875 C 0.625 -3.890625 0.75 -4.492188 1 -4.984375 C 1.25 -5.472656 1.585938 -5.832031 2.015625 -6.0625 C 2.441406 -6.300781 2.925781 -6.421875 3.46875 -6.421875 C 4.019531 -6.421875 4.507812 -6.300781 4.9375 -6.0625 C 5.363281 -5.832031 5.695312 -5.472656 5.9375 -4.984375 C 6.1875 -4.492188 6.3125 -3.890625 6.3125 -3.171875 C 6.3125 -2.441406 6.1875 -1.832031 5.9375 -1.34375 C 5.695312 -0.863281 5.363281 -0.503906 4.9375 -0.265625 C 4.507812 -0.0234375 4.019531 0.09375 3.46875 0.09375 Z M 3.46875 -0.59375 C 4.132812 -0.59375 4.640625 -0.796875 4.984375 -1.203125 C 5.335938 -1.617188 5.515625 -2.273438 5.515625 -3.171875 C 5.515625 -4.054688 5.335938 -4.703125 4.984375 -5.109375 C 4.640625 -5.523438 4.132812 -5.734375 3.46875 -5.734375 C 2.113281 -5.734375 1.4375 -4.878906 1.4375 -3.171875 C 1.4375 -1.453125 2.113281 -0.59375 3.46875 -0.59375 Z M 3.46875 -0.59375 "/></g></g><g transform="translate(50.738105, 21.463816)"><g><path d="M 1.6875 0 L 0.953125 0 L 0.953125 -6.328125 L 1.875 -6.328125 L 4.96875 -1.5 L 5.0625 -1.515625 L 5.0625 -6.328125 L 5.796875 -6.328125 L 5.796875 0 L 5.015625 0 L 1.796875 -5.171875 L 1.6875 -5.15625 Z M 1.6875 0 "/></g></g><g transform="translate(57.499033, 21.463816)"><g><path d="M 2.765625 0.09375 C 2.367188 0.09375 2.007812 0.0390625 1.6875 -0.0625 C 1.375 -0.175781 1.113281 -0.320312 0.90625 -0.5 C 0.695312 -0.675781 0.539062 -0.867188 0.4375 -1.078125 L 0.84375 -1.578125 L 0.953125 -1.578125 C 1.335938 -0.910156 1.941406 -0.578125 2.765625 -0.578125 C 3.242188 -0.578125 3.597656 -0.675781 3.828125 -0.875 C 4.066406 -1.070312 4.1875 -1.351562 4.1875 -1.71875 C 4.1875 -1.925781 4.144531 -2.097656 4.0625 -2.234375 C 3.988281 -2.378906 3.863281 -2.503906 3.6875 -2.609375 C 3.507812 -2.710938 3.269531 -2.800781 2.96875 -2.875 L 2.234375 -3.0625 C 1.679688 -3.195312 1.269531 -3.40625 1 -3.6875 C 0.738281 -3.976562 0.609375 -4.347656 0.609375 -4.796875 C 0.609375 -5.109375 0.6875 -5.390625 0.84375 -5.640625 C 1.007812 -5.890625 1.25 -6.082031 1.5625 -6.21875 C 1.875 -6.351562 2.25 -6.421875 2.6875 -6.421875 C 3.164062 -6.421875 3.566406 -6.351562 3.890625 -6.21875 C 4.222656 -6.09375 4.488281 -5.894531 4.6875 -5.625 L 4.3125 -5.125 L 4.203125 -5.125 C 4.023438 -5.351562 3.8125 -5.519531 3.5625 -5.625 C 3.3125 -5.726562 3.019531 -5.78125 2.6875 -5.78125 C 2.25 -5.78125 1.914062 -5.691406 1.6875 -5.515625 C 1.46875 -5.347656 1.359375 -5.113281 1.359375 -4.8125 C 1.359375 -4.53125 1.4375 -4.300781 1.59375 -4.125 C 1.757812 -3.957031 2.039062 -3.828125 2.4375 -3.734375 L 3.1875 -3.5625 C 3.800781 -3.414062 4.242188 -3.191406 4.515625 -2.890625 C 4.796875 -2.585938 4.9375 -2.207031 4.9375 -1.75 C 4.9375 -1.382812 4.859375 -1.0625 4.703125 -0.78125 C 4.546875 -0.507812 4.300781 -0.296875 3.96875 -0.140625 C 3.644531 0.015625 3.242188 0.09375 2.765625 0.09375 Z M 2.765625 0.09375 "/></g></g><g transform="translate(62.932929, 21.463816)"><g><path d="M 3.265625 0.09375 C 2.492188 0.09375 1.90625 -0.101562 1.5 -0.5 C 1.101562 -0.894531 0.90625 -1.476562 0.90625 -2.25 L 0.90625 -6.328125 L 1.640625 -6.328125 L 1.640625 -2.265625 C 1.640625 -1.710938 1.773438 -1.296875 2.046875 -1.015625 C 2.316406 -0.734375 2.722656 -0.59375 3.265625 -0.59375 C 4.347656 -0.59375 4.890625 -1.148438 4.890625 -2.265625 L 4.890625 -6.328125 L 5.625 -6.328125 L 5.625 -2.25 C 5.625 -1.476562 5.425781 -0.894531 5.03125 -0.5 C 4.632812 -0.101562 4.046875 0.09375 3.265625 0.09375 Z M 3.265625 0.09375 "/></g></g><g transform="translate(69.468348, 21.463816)"><g><path d="M 1.703125 -6.328125 L 1.703125 -0.609375 L 4.75 -0.609375 L 4.75 0 L 0.953125 0 L 0.953125 -6.328125 Z M 1.703125 -6.328125 "/></g></g><g transform="translate(74.494593, 21.463816)"><g><path d="M 4.9375 -6.328125 L 4.9375 -5.703125 L 2.953125 -5.703125 L 2.953125 0 L 2.21875 0 L 2.21875 -5.703125 L 0.234375 -5.703125 L 0.234375 -6.328125 Z M 4.9375 -6.328125 "/></g></g><g transform="translate(79.672623, 21.463816)"><g><path d="M 1.703125 0 L 0.953125 0 L 0.953125 -6.328125 L 1.703125 -6.328125 Z M 1.703125 0 "/></g></g><g transform="translate(82.339699, 21.463816)"><g><path d="M 1.6875 0 L 0.953125 0 L 0.953125 -6.328125 L 1.875 -6.328125 L 4.96875 -1.5 L 5.0625 -1.515625 L 5.0625 -6.328125 L 5.796875 -6.328125 L 5.796875 0 L 5.015625 0 L 1.796875 -5.171875 L 1.6875 -5.15625 Z M 1.6875 0 "/></g></g><g transform="translate(89.100627, 21.463816)"><g><path d="M 3.328125 0.09375 C 2.796875 0.09375 2.328125 -0.0234375 1.921875 -0.265625 C 1.515625 -0.515625 1.195312 -0.882812 0.96875 -1.375 C 0.738281 -1.863281 0.625 -2.460938 0.625 -3.171875 C 0.625 -3.878906 0.742188 -4.476562 0.984375 -4.96875 C 1.234375 -5.457031 1.578125 -5.820312 2.015625 -6.0625 C 2.453125 -6.300781 2.953125 -6.421875 3.515625 -6.421875 C 4.117188 -6.421875 4.613281 -6.3125 5 -6.09375 C 5.394531 -5.875 5.675781 -5.550781 5.84375 -5.125 L 5.359375 -4.84375 L 5.25 -4.84375 C 5.082031 -5.164062 4.859375 -5.398438 4.578125 -5.546875 C 4.296875 -5.691406 3.941406 -5.765625 3.515625 -5.765625 C 2.128906 -5.765625 1.4375 -4.898438 1.4375 -3.171875 C 1.4375 -2.265625 1.609375 -1.601562 1.953125 -1.1875 C 2.304688 -0.78125 2.796875 -0.578125 3.421875 -0.578125 C 4.003906 -0.578125 4.4375 -0.707031 4.71875 -0.96875 C 5.007812 -1.238281 5.15625 -1.65625 5.15625 -2.21875 L 5.15625 -2.78125 L 3.34375 -2.78125 L 3.34375 -3.375 L 5.875 -3.375 L 5.875 0 L 5.1875 0 L 5.1875 -0.84375 L 5.09375 -0.875 C 4.925781 -0.539062 4.691406 -0.296875 4.390625 -0.140625 C 4.097656 0.015625 3.742188 0.09375 3.328125 0.09375 Z M 3.328125 0.09375 "/></g></g><g transform="translate(95.692423, 21.463816)"><g/></g><g transform="translate(97.869451, 21.463816)"><g><path d="M 0.953125 0 L 0.953125 -6.328125 L 3.265625 -6.328125 C 3.679688 -6.328125 4.035156 -6.257812 4.328125 -6.125 C 4.617188 -5.988281 4.835938 -5.789062 4.984375 -5.53125 C 5.128906 -5.269531 5.203125 -4.96875 5.203125 -4.625 C 5.203125 -4.226562 5.101562 -3.898438 4.90625 -3.640625 C 4.707031 -3.390625 4.398438 -3.203125 3.984375 -3.078125 L 3.984375 -2.984375 C 4.191406 -2.898438 4.359375 -2.769531 4.484375 -2.59375 C 4.617188 -2.425781 4.738281 -2.171875 4.84375 -1.828125 L 5.4375 0 L 4.65625 0 L 4.03125 -1.9375 C 3.957031 -2.164062 3.867188 -2.34375 3.765625 -2.46875 C 3.671875 -2.601562 3.546875 -2.695312 3.390625 -2.75 C 3.242188 -2.8125 3.054688 -2.84375 2.828125 -2.84375 L 1.703125 -2.84375 L 1.703125 0 Z M 3.234375 -3.46875 C 3.628906 -3.46875 3.925781 -3.5625 4.125 -3.75 C 4.320312 -3.9375 4.421875 -4.21875 4.421875 -4.59375 C 4.421875 -4.96875 4.320312 -5.242188 4.125 -5.421875 C 3.925781 -5.609375 3.628906 -5.703125 3.234375 -5.703125 L 1.703125 -5.703125 L 1.703125 -3.46875 Z M 3.234375 -3.46875 "/></g></g><g transform="translate(103.741354, 21.463816)"><g><path d="M 1.703125 -2.984375 L 1.703125 -0.609375 L 4.9375 -0.609375 L 4.9375 0 L 0.953125 0 L 0.953125 -6.328125 L 4.859375 -6.328125 L 4.859375 -5.71875 L 1.703125 -5.71875 L 1.703125 -3.59375 L 4.484375 -3.59375 L 4.484375 -2.984375 Z M 1.703125 -2.984375 "/></g></g><g transform="translate(109.097189, 21.463816)"><g><path d="M 3.21875 -6.328125 C 3.65625 -6.328125 4.03125 -6.25 4.34375 -6.09375 C 4.65625 -5.945312 4.890625 -5.726562 5.046875 -5.4375 C 5.210938 -5.144531 5.296875 -4.800781 5.296875 -4.40625 C 5.296875 -4.007812 5.210938 -3.664062 5.046875 -3.375 C 4.890625 -3.09375 4.65625 -2.875 4.34375 -2.71875 C 4.03125 -2.5625 3.65625 -2.484375 3.21875 -2.484375 L 1.703125 -2.484375 L 1.703125 0 L 0.953125 0 L 0.953125 -6.328125 Z M 3.203125 -3.109375 C 4.085938 -3.109375 4.53125 -3.539062 4.53125 -4.40625 C 4.53125 -5.269531 4.085938 -5.703125 3.203125 -5.703125 L 1.703125 -5.703125 L 1.703125 -3.109375 Z M 3.203125 -3.109375 "/></g></g><g transform="translate(114.878021, 21.463816)"><g><path d="M 3.46875 0.09375 C 2.925781 0.09375 2.441406 -0.0234375 2.015625 -0.265625 C 1.585938 -0.503906 1.25 -0.863281 1 -1.34375 C 0.75 -1.832031 0.625 -2.441406 0.625 -3.171875 C 0.625 -3.890625 0.75 -4.492188 1 -4.984375 C 1.25 -5.472656 1.585938 -5.832031 2.015625 -6.0625 C 2.441406 -6.300781 2.925781 -6.421875 3.46875 -6.421875 C 4.019531 -6.421875 4.507812 -6.300781 4.9375 -6.0625 C 5.363281 -5.832031 5.695312 -5.472656 5.9375 -4.984375 C 6.1875 -4.492188 6.3125 -3.890625 6.3125 -3.171875 C 6.3125 -2.441406 6.1875 -1.832031 5.9375 -1.34375 C 5.695312 -0.863281 5.363281 -0.503906 4.9375 -0.265625 C 4.507812 -0.0234375 4.019531 0.09375 3.46875 0.09375 Z M 3.46875 -0.59375 C 4.132812 -0.59375 4.640625 -0.796875 4.984375 -1.203125 C 5.335938 -1.617188 5.515625 -2.273438 5.515625 -3.171875 C 5.515625 -4.054688 5.335938 -4.703125 4.984375 -5.109375 C 4.640625 -5.523438 4.132812 -5.734375 3.46875 -5.734375 C 2.113281 -5.734375 1.4375 -4.878906 1.4375 -3.171875 C 1.4375 -1.453125 2.113281 -0.59375 3.46875 -0.59375 Z M 3.46875 -0.59375 "/></g></g><g transform="translate(121.834101, 21.463816)"><g><path d="M 0.953125 0 L 0.953125 -6.328125 L 3.265625 -6.328125 C 3.679688 -6.328125 4.035156 -6.257812 4.328125 -6.125 C 4.617188 -5.988281 4.835938 -5.789062 4.984375 -5.53125 C 5.128906 -5.269531 5.203125 -4.96875 5.203125 -4.625 C 5.203125 -4.226562 5.101562 -3.898438 4.90625 -3.640625 C 4.707031 -3.390625 4.398438 -3.203125 3.984375 -3.078125 L 3.984375 -2.984375 C 4.191406 -2.898438 4.359375 -2.769531 4.484375 -2.59375 C 4.617188 -2.425781 4.738281 -2.171875 4.84375 -1.828125 L 5.4375 0 L 4.65625 0 L 4.03125 -1.9375 C 3.957031 -2.164062 3.867188 -2.34375 3.765625 -2.46875 C 3.671875 -2.601562 3.546875 -2.695312 3.390625 -2.75 C 3.242188 -2.8125 3.054688 -2.84375 2.828125 -2.84375 L 1.703125 -2.84375 L 1.703125 0 Z M 3.234375 -3.46875 C 3.628906 -3.46875 3.925781 -3.5625 4.125 -3.75 C 4.320312 -3.9375 4.421875 -4.21875 4.421875 -4.59375 C 4.421875 -4.96875 4.320312 -5.242188 4.125 -5.421875 C 3.925781 -5.609375 3.628906 -5.703125 3.234375 -5.703125 L 1.703125 -5.703125 L 1.703125 -3.46875 Z M 3.234375 -3.46875 "/></g></g><g transform="translate(127.706004, 21.463816)"><g><path d="M 4.9375 -6.328125 L 4.9375 -5.703125 L 2.953125 -5.703125 L 2.953125 0 L 2.21875 0 L 2.21875 -5.703125 L 0.234375 -5.703125 L 0.234375 -6.328125 Z M 4.9375 -6.328125 "/></g></g></g></svg>